<?xml version="1.0" encoding="UTF-8"?>
<svg xmlns="http://www.w3.org/2000/svg" viewBox="0 0 3000 1150" width="3000" height="1150"><path d="M1984.5 113C1989.5 112.8 2008.9 112.4 2014 112.5C2019.1 112.6 2011 113.2 2015 113.5C2019 113.8 2034 114.2 2038 114.5C2042 114.8 2037.5 115.3 2039 115.5C2040.5 115.7 2043.7 115 2047 115.5C2050.3 116 2055.2 117.8 2059 118.5C2062.8 119.2 2067.3 119 2070 119.5C2072.7 120 2073.3 121.2 2075 121.5C2076.7 121.8 2078 121 2080 121.5C2082 122 2083.2 123.3 2087 124.5C2090.8 125.7 2093.3 124.5 2103 128.5C2112.7 132.5 2133.7 142 2145 148.5C2156.3 155 2162.6 160.1 2171 167.5C2179.4 174.9 2189.3 185.6 2195.5 193C2201.8 200.4 2204.8 205.7 2208.5 212C2212.2 218.3 2214.8 224.7 2217.5 231C2220.2 237.3 2222.2 241.7 2224.5 250C2226.8 258.3 2230.2 269.2 2231.5 281C2232.8 292.8 2232.5 314.2 2232.5 321C2232.5 327.8 2231.7 320 2231.5 322C2231.3 324 2231.7 331 2231.5 333C2231.3 335 2231 330.2 2230.5 334C2230 337.8 2230.2 347 2228.5 356C2226.8 365 2223.8 377.7 2220.5 388C2217.2 398.3 2212.5 409.2 2208.5 418C2204.5 426.8 2198.7 436.5 2196.5 441C2194.3 445.5 2197.3 441.5 2195.5 445C2193.7 448.5 2192.8 451 2185.5 462C2178.2 473 2162.5 496.8 2151.5 511C2140.5 525.2 2130.9 535.4 2119.5 547C2108.1 558.6 2096.4 569.3 2083 580.5C2069.6 591.8 2052.3 605 2039 614.5C2025.7 624 2017.5 629.2 2003 637.5C1988.5 645.8 1965.7 657.8 1952 664.5C1938.3 671.2 1929.5 674.3 1921 677.5C1912.5 680.7 1904.8 682.2 1901 683.5C1897.2 684.8 1904.7 683.5 1898 685.5C1891.3 687.5 1869 693.7 1861 695.5C1853 697.3 1852.7 696 1850 696.5C1847.3 697 1846.8 698.2 1845 698.5C1843.2 698.8 1841.3 698.2 1839 698.5C1836.7 698.8 1834.7 700 1831 700.5C1827.3 701 1819.5 701.2 1817 701.5C1814.5 701.8 1818.5 702.3 1816 702.5C1813.5 702.7 1804.5 702.3 1802 702.5C1799.5 702.7 1803.5 703.3 1801 703.5C1798.5 703.7 1789.5 703.7 1787 703.5C1784.5 703.3 1788.3 702.7 1786 702.5C1783.7 702.3 1775.3 702.7 1773 702.5C1770.7 702.3 1772.7 701.5 1772 701.5C1771.3 701.5 1770.6 700.1 1769 702.5C1767.4 704.9 1769.4 698.8 1762.5 716C1755.6 733.3 1735.8 783.5 1727.5 806C1719.2 828.5 1715.3 843 1712.5 851C1709.7 859 1711 852.5 1710.5 854C1710 855.5 1710 858.5 1709.5 860C1709 861.5 1709.2 857.5 1707.5 863C1705.8 868.5 1701.3 886.8 1699.5 893C1697.7 899.2 1698 894.3 1696.5 900C1695 905.7 1691.8 919.2 1690.5 927C1689.2 934.8 1689 943.5 1688.5 947C1688 950.5 1687.5 946.7 1687.5 948C1687.5 949.3 1687.9 953.4 1688.5 955C1689.1 956.6 1690.3 957.1 1691 957.5C1691.8 957.9 1692.3 957.1 1693 957.5C1693.8 957.9 1695.1 959.3 1695.5 960C1695.9 960.8 1696.3 960.6 1695.5 962C1694.8 963.4 1692.9 967.3 1691 968.5C1689.1 969.8 1686.3 970.3 1684 969.5C1681.8 968.8 1679.1 965.9 1677.5 964C1675.9 962.1 1675 963 1674.5 958C1674 953 1674.2 938.8 1674.5 934C1674.8 929.2 1676.2 930.7 1676.5 929C1676.8 927.3 1676 926.5 1676.5 924C1677 921.5 1678.8 917.2 1679.5 914C1680.2 910.8 1679.8 907.8 1680.5 905C1681.2 902.2 1682 902.7 1683.5 897C1685 891.3 1684 888.5 1689.5 871C1695 853.5 1706 820.3 1716.5 792C1727 763.7 1747.3 716.6 1752.5 701C1757.8 685.4 1750.4 699.3 1748 698.5C1745.6 697.8 1741.8 697.8 1738 696.5C1734.2 695.2 1728.8 692.7 1725 690.5C1721.2 688.3 1718.4 686.6 1715 683.5C1711.6 680.4 1707.1 676.3 1704.5 672C1701.9 667.8 1700.3 663.2 1699.5 658C1698.7 652.8 1698.8 646.2 1699.5 641C1700.2 635.8 1702.2 630.7 1703.5 627C1704.8 623.3 1705.4 621.9 1707.5 619C1709.6 616.1 1713.9 611.4 1716 609.5C1718.1 607.6 1718.6 607.6 1720 607.5C1721.4 607.4 1723.6 608.1 1724.5 609C1725.4 609.9 1726.8 610.3 1725.5 613C1724.2 615.7 1718.8 620.8 1716.5 625C1714.2 629.2 1712.5 633.8 1711.5 638C1710.5 642.2 1710.3 646.7 1710.5 650C1710.7 653.3 1711.3 655.2 1712.5 658C1713.7 660.8 1715.3 664.1 1717.5 667C1719.8 669.9 1723.6 673.4 1726 675.5C1728.4 677.6 1727.8 677.5 1732 679.5C1736.2 681.5 1747 686 1751 687.5C1755 689 1754.8 688.6 1756 688.5C1757.3 688.4 1757.1 689.9 1758.5 687C1759.9 684.1 1762.8 674.8 1764.5 671C1766.2 667.2 1767 667.7 1768.5 664C1770 660.3 1770.2 656.7 1773.5 649C1776.8 641.3 1783.8 628.5 1788.5 618C1793.2 607.5 1795 600.2 1801.5 586C1808 571.8 1823.2 542.2 1827.5 533C1831.8 523.8 1824.7 537 1827.5 531C1830.3 525 1841.7 503 1844.5 497C1847.3 491 1844.2 495.7 1844.5 495C1844.8 494.3 1846 494 1846.5 493C1847 492 1843.8 496.7 1847.5 489C1851.2 481.3 1864.7 454.3 1868.5 447C1872.3 439.7 1870.2 445.7 1870.5 445C1870.8 444.3 1870.2 443.7 1870.5 443C1870.8 442.3 1869.7 446.7 1872.5 441C1875.3 435.3 1884.7 414.7 1887.5 409C1890.3 403.3 1887.8 410.2 1889.5 407C1891.2 403.8 1895 394.7 1897.5 390C1900 385.3 1900.8 385.7 1904.5 379C1908.2 372.3 1916 356.3 1919.5 350C1923 343.7 1923.7 345 1925.5 341C1927.3 337 1927.5 331.8 1930.5 326C1933.5 320.2 1941 310.2 1943.5 306C1946 301.8 1942.8 305.2 1945.5 301C1948.2 296.8 1955.9 285.3 1959.5 281C1963.1 276.8 1964.9 276.4 1967 275.5C1969.1 274.6 1970.3 274.6 1972 275.5C1973.8 276.4 1976.8 278.9 1977.5 281C1978.3 283.1 1980.5 279.7 1976.5 288C1972.5 296.3 1959.5 320.8 1953.5 331C1947.5 341.2 1945.8 340.5 1940.5 349C1935.2 357.5 1928.5 369.2 1921.5 382C1914.5 394.8 1902.7 418.3 1898.5 426C1894.3 433.7 1896.8 427.3 1896.5 428C1896.2 428.7 1896.8 429.3 1896.5 430C1896.2 430.7 1897.2 426.8 1894.5 432C1891.8 437.2 1883.2 455.8 1880.5 461C1877.8 466.2 1879 462 1878.5 463C1878 464 1879.3 463.3 1877.5 467C1875.7 470.7 1870.8 478.2 1867.5 485C1864.2 491.8 1864.7 493 1857.5 508C1850.3 523 1830 563.5 1824.5 575C1819 586.5 1828.2 569 1824.5 577C1820.8 585 1807.5 611.8 1802.5 623C1797.5 634.2 1799 633.5 1794.5 644C1790 654.5 1778.6 678.4 1775.5 686C1772.4 693.6 1769.6 688.9 1776 689.5C1782.4 690.1 1807.5 689.7 1814 689.5C1820.5 689.3 1813.5 688.7 1815 688.5C1816.5 688.3 1820.5 688.8 1823 688.5C1825.5 688.2 1827.5 686.8 1830 686.5C1832.5 686.2 1834.8 687 1838 686.5C1841.2 686 1846.3 684 1849 683.5C1851.7 683 1846.8 685.2 1854 683.5C1861.2 681.8 1885.2 675.5 1892 673.5C1898.8 671.5 1893 672.2 1895 671.5C1897 670.8 1901.7 670.3 1904 669.5C1906.3 668.7 1907.2 667.2 1909 666.5C1910.8 665.8 1912 666.7 1915 665.5C1918 664.3 1923.8 660.8 1927 659.5C1930.2 658.2 1925.3 661.5 1934 657.5C1942.7 653.5 1968 641.2 1979 635.5C1990 629.8 1988.2 631.3 2000 623.5C2011.8 615.7 2036.8 598.3 2050 588.5C2063.2 578.7 2069.3 573.3 2079 564.5C2088.8 555.8 2098.4 546.8 2108.5 536C2118.6 525.3 2131 510.5 2139.5 500C2148 489.5 2153.3 482.2 2159.5 473C2165.7 463.8 2170.7 455.8 2176.5 445C2182.3 434.2 2189.5 419.8 2194.5 408C2199.5 396.2 2204 382 2206.5 374C2209 366 2208.7 363 2209.5 360C2210.3 357 2210.5 360.2 2211.5 356C2212.5 351.8 2214.7 345.3 2215.5 335C2216.3 324.7 2216.5 301 2216.5 294C2216.5 287 2215.8 296.2 2215.5 293C2215.2 289.8 2215 278.8 2214.5 275C2214 271.2 2213 272.3 2212.5 270C2212 267.7 2213.5 267.5 2211.5 261C2209.5 254.5 2204.5 239.8 2200.5 231C2196.5 222.2 2191 213.7 2187.5 208C2184 202.3 2184.8 202.8 2179.5 197C2174.3 191.3 2162.1 179.1 2156 173.5C2149.9 167.9 2148.2 167 2143 163.5C2137.8 160 2128.3 154.3 2125 152.5C2121.7 150.7 2123.7 152.8 2123 152.5C2122.3 152.2 2121.7 150.8 2121 150.5C2120.3 150.2 2121.2 151.5 2119 150.5C2116.8 149.5 2114.3 147 2108 144.5C2101.7 142 2089.3 138 2081 135.5C2072.7 133 2064 130.7 2058 129.5C2052 128.3 2048.5 129 2045 128.5C2041.5 128 2040.2 126.8 2037 126.5C2033.8 126.2 2028 126.7 2026 126.5C2024 126.3 2034.8 125.7 2025 125.5C2015.2 125.3 1976.8 125.3 1967 125.5C1957.2 125.7 1968.2 126.3 1966 126.5C1963.8 126.7 1956.2 126.3 1954 126.5C1951.8 126.7 1957 127 1953 127.5C1949 128 1934.5 128.8 1930 129.5C1925.5 130.2 1928.3 131 1926 131.5C1923.7 132 1919 131.8 1916 132.5C1913 133.2 1910 135 1908 135.5C1906 136 1908.8 134.5 1904 135.5C1899.2 136.5 1886.2 139.5 1879 141.5C1871.8 143.5 1865.2 146.3 1861 147.5C1856.8 148.7 1858.2 147.2 1854 148.5C1849.8 149.8 1839.5 154.3 1836 155.5C1832.5 156.7 1844.5 150.7 1833 155.5C1821.5 160.3 1782.2 177.3 1767 184.5C1751.8 191.7 1752.7 192 1742 198.5C1731.3 205 1715.8 214.3 1703 223.5C1690.2 232.7 1676.3 243.8 1665 253.5C1653.8 263.3 1645.6 270.9 1635.5 282C1625.4 293.1 1612 309.8 1604.5 320C1597 330.2 1595.3 333.8 1590.5 343C1585.7 352.2 1579.7 363.3 1575.5 375C1571.3 386.7 1567.3 402 1565.5 413C1563.7 424 1564.5 436.2 1564.5 441C1564.5 445.8 1565.3 440.2 1565.5 442C1565.7 443.8 1564.8 447.2 1565.5 452C1566.2 456.8 1567.8 465.5 1569.5 471C1571.2 476.5 1573.5 481.2 1575.5 485C1577.5 488.8 1577.8 490 1581.5 494C1585.2 498 1594.8 506 1597.5 509C1600.2 512 1597.9 511.1 1597.5 512C1597.1 512.9 1596.4 514.3 1595 514.5C1593.6 514.8 1591.3 514.7 1589 513.5C1586.7 512.3 1583.9 510.3 1581 507.5C1578.1 504.8 1574.8 501.8 1571.5 497C1568.3 492.3 1564 484.7 1561.5 479C1559 473.3 1557.7 469.2 1556.5 463C1555.3 456.8 1555 445.7 1554.5 442C1554 438.3 1553.7 444.5 1553.5 441C1553.3 437.5 1553 426.8 1553.5 421C1554 415.2 1556 409.7 1556.5 406C1557 402.3 1554.8 405.8 1556.5 399C1558.2 392.2 1563.5 373.5 1566.5 365C1569.5 356.5 1569.5 356.7 1574.5 348C1579.5 339.3 1590.8 321.5 1596.5 313C1602.2 304.5 1603.7 302.8 1608.5 297C1613.3 291.2 1618.3 285.6 1625.5 278C1632.8 270.4 1644.1 258.9 1652 251.5C1659.9 244.1 1665.2 239.8 1673 233.5C1680.8 227.2 1688.3 220.8 1699 213.5C1709.7 206.2 1727.5 195.3 1737 189.5C1746.5 183.7 1748.3 182.5 1756 178.5C1763.7 174.5 1778.2 167.7 1783 165.5C1787.8 163.3 1782.3 166.8 1785 165.5C1787.7 164.2 1787.3 162.3 1799 157.5C1810.7 152.7 1844 140.3 1855 136.5C1866 132.7 1860.7 135.8 1865 134.5C1869.3 133.2 1876.3 129.8 1881 128.5C1885.7 127.2 1888.8 127.5 1893 126.5C1897.2 125.5 1902 123.3 1906 122.5C1910 121.7 1914.3 122 1917 121.5C1919.7 121 1917.7 120.2 1922 119.5C1926.3 118.8 1938.3 118.2 1943 117.5C1947.7 116.8 1943.2 116.2 1950 115.5C1956.8 114.8 1978.3 113.9 1984 113.5C1989.8 113.1 1979.5 113.2 1984.5 113ZM549.5 114C553.8 113.8 566.1 112.6 575 113.5C583.9 114.4 596.2 117.5 603 119.5C609.8 121.5 610.4 121.4 616 125.5C621.6 129.6 631.4 137.9 636.5 144C641.6 150.1 643.8 155.3 646.5 162C649.2 168.7 651.3 178.2 652.5 184C653.7 189.8 653.2 194.7 653.5 197C653.8 199.3 654.3 192.8 654.5 198C654.7 203.2 654.7 222.8 654.5 228C654.3 233.2 653.7 227.7 653.5 229C653.3 230.3 653.7 234.7 653.5 236C653.3 237.3 652.7 235.8 652.5 237C652.3 238.2 652.7 241.8 652.5 243C652.3 244.2 651.7 242.8 651.5 244C651.3 245.2 652.3 245 651.5 250C650.7 255 647.3 269.2 646.5 274C645.7 278.8 646.8 277.5 646.5 279C646.2 280.5 645.7 278.5 644.5 283C643.3 287.5 644.7 289.7 639.5 306C634.3 322.3 625.2 351.2 613.5 381C601.8 410.8 578 465.5 569.5 485C561 504.5 565 492.5 562.5 498C560 503.5 556.2 514.3 554.5 518C552.8 521.7 552.8 519.3 552.5 520C552.2 520.7 555.7 515.7 552.5 522C549.3 528.3 538.8 546.8 533.5 558C528.2 569.2 523.3 582.8 520.5 589C517.7 595.2 517.2 593.7 516.5 595C515.8 596.3 519 591.8 516.5 597C514 602.2 503.9 620.8 501.5 626C499.1 631.3 498.4 629.9 502 628.5C505.6 627.1 509.8 625.2 523 617.5C536.2 609.8 556.7 598.2 581 582.5C605.3 566.8 642.5 542 669 523.5C695.5 505 713.2 492.2 740 471.5C766.8 450.8 802.3 422.5 830 399.5C857.7 376.5 880.4 357.4 906 333.5C931.6 309.6 965.4 275.1 983.5 256C1001.6 236.9 1005.8 230.2 1014.5 219C1023.2 207.8 1030.8 196.3 1035.5 189C1040.2 181.7 1041.3 177.8 1042.5 175C1043.7 172.2 1043.2 173.5 1042.5 172C1041.8 170.5 1038.8 168.2 1038.5 166C1038.2 163.8 1038.9 161.4 1040.5 159C1042.1 156.6 1046.1 152.9 1048 151.5C1049.9 150.1 1050.5 150.5 1052 150.5C1053.5 150.5 1055.4 150.3 1057 151.5C1058.6 152.8 1060.8 155.4 1061.5 158C1062.3 160.6 1062.5 162.7 1061.5 167C1060.5 171.3 1057 180.5 1055.5 184C1054 187.5 1053.3 186.3 1052.5 188C1051.7 189.7 1053.3 189.2 1050.5 194C1047.7 198.8 1042 208 1035.5 217C1029 226 1019.2 238.8 1011.5 248C1003.8 257.2 1002.4 258.8 989.5 272C976.6 285.3 950.6 311.6 934 327.5C917.4 343.4 904.5 354.7 890 367.5C875.5 380.3 858.3 395.2 847 404.5C835.7 413.8 829.7 417.3 822 423.5C814.3 429.7 817.8 428.3 801 441.5C784.2 454.7 742 486.8 721 502.5C700 518.2 686.2 527.8 675 535.5C663.8 543.2 658.7 545.3 654 548.5C649.3 551.7 653.3 550.2 647 554.5C640.7 558.8 621.7 570.7 616 574.5C610.3 578.3 625.2 569.7 613 577.5C600.8 585.3 555 614.2 543 621.5C531 628.8 542.8 620.7 541 621.5C539.2 622.3 535.7 624.2 532 626.5C528.3 628.8 525.8 631.5 519 635.5C512.2 639.5 496.3 647.4 491 650.5C485.8 653.6 488.6 652.4 487.5 654C486.4 655.6 484.9 658.6 484.5 660C484.1 661.4 480.8 660.4 485 662.5C489.3 664.6 495.7 665.5 510 672.5C524.3 679.5 548.7 691.2 571 704.5C593.3 717.8 618 734.3 644 752.5C670 770.7 694.2 788.2 727 813.5C759.8 838.8 809.7 880.5 841 904.5C872.3 928.5 902 948.3 915 957.5C928 966.7 918.1 959.4 919 959.5C919.9 959.6 918.4 962.9 920.5 958C922.6 953.1 926.2 940.7 931.5 930C936.8 919.3 946.2 903.8 952.5 894C958.8 884.2 960.2 882.3 969.5 871C978.8 859.7 997.8 837.8 1008.5 826C1019.3 814.3 1021.9 811.6 1034 800.5C1046.1 789.4 1067.8 770.5 1081 759.5C1094.2 748.5 1099.4 744.6 1113 734.5C1126.6 724.4 1152.4 709.1 1162.5 699C1172.6 688.9 1169.2 685 1173.5 674C1177.8 663 1186.3 639.9 1188.5 633C1190.8 626.1 1189.9 630.1 1187 632.5C1184.1 634.9 1177.5 642 1171 647.5C1164.5 653 1154.8 660.7 1148 665.5C1141.2 670.3 1135.7 673.7 1130 676.5C1124.3 679.3 1119.3 681.5 1114 682.5C1108.7 683.5 1101.7 683 1098 682.5C1094.3 682 1094.3 681.3 1092 679.5C1089.8 677.8 1086.4 675.1 1084.5 672C1082.6 668.9 1081 666.7 1080.5 661C1080 655.3 1080 647 1081.5 638C1083 629 1088.2 613.7 1089.5 607C1090.8 600.3 1089.8 599.8 1089.5 598C1089.3 596.3 1088.9 596.8 1088 596.5C1087.1 596.3 1087.5 594.7 1084 596.5C1080.5 598.3 1073.2 602.7 1067 607.5C1060.8 612.3 1056.9 615.3 1047 625.5C1037.1 635.8 1019.8 654.8 1007.5 669C995.3 683.3 980.1 703.1 973.5 711C966.9 718.9 969.8 715.4 968 716.5C966.3 717.6 964.8 718.1 963 717.5C961.3 716.9 958.4 715.4 957.5 713C956.6 710.6 954.8 711 957.5 703C960.2 695 968.3 676.2 973.5 665C978.7 653.8 986.1 641.1 988.5 636C990.9 630.9 992.8 631.1 988 634.5C983.3 637.9 968.5 650.2 960 656.5C951.5 662.8 944.8 667.7 937 672.5C929.2 677.3 920.3 682 913 685.5C905.7 689 899.7 691.5 893 693.5C886.3 695.5 879.2 697 873 697.5C866.8 698 860.5 697.3 856 696.5C851.5 695.7 849.3 694.8 846 692.5C842.8 690.3 839.1 687.1 836.5 683C833.9 678.9 831.5 673.3 830.5 668C829.5 662.7 829.8 656 830.5 651C831.2 646 832.8 642.3 834.5 638C836.2 633.7 837.7 630 840.5 625C843.3 620 847.3 613.3 851.5 608C855.8 602.8 862.4 596.8 866 593.5C869.6 590.3 869.3 590.5 873 588.5C876.7 586.5 883.8 582.7 888 581.5C892.2 580.3 895.4 580.6 898 581.5C900.6 582.4 902.4 584.1 903.5 587C904.6 589.9 905.2 595 904.5 599C903.8 603 902.4 606.8 899.5 611C896.6 615.3 892.3 620.3 887 624.5C881.8 628.8 874.3 633.3 868 636.5C861.7 639.7 852.6 641.8 849 643.5C845.4 645.3 847.3 645.4 846.5 647C845.8 648.6 844.7 648.7 844.5 653C844.3 657.3 845 669 845.5 673C846 677 846.1 675.3 847.5 677C848.9 678.8 851.1 681.9 854 683.5C856.9 685.1 860.2 686.2 865 686.5C869.8 686.8 877.5 686.5 883 685.5C888.5 684.5 890.2 684 898 680.5C905.8 677 920.5 670 930 664.5C939.5 659 945.8 654.2 955 647.5C964.2 640.8 976.9 631.1 985 624.5C993.1 617.9 997.1 616.3 1003.5 608C1009.9 599.8 1018.9 581.8 1023.5 575C1028.1 568.3 1028.9 568.8 1031 567.5C1033.1 566.3 1034.6 566.9 1036 567.5C1037.4 568.1 1038.9 569.4 1039.5 571C1040.1 572.6 1045.7 565.2 1039.5 577C1033.3 588.8 1010.6 627.1 1002.5 642C994.4 656.9 992.3 662.8 991 666.5C989.7 670.2 989.3 669.6 994.5 664C999.8 658.4 1012.4 643.4 1022.5 633C1032.6 622.6 1046.8 608.8 1055 601.5C1063.3 594.3 1067 592.3 1072 589.5C1077 586.7 1081.3 585.3 1085 584.5C1088.7 583.7 1092 584.2 1094 584.5C1096 584.8 1096.1 585.8 1097 586.5C1097.9 587.3 1098.6 587.3 1099.5 589C1100.4 590.8 1102 593.8 1102.5 597C1103 600.2 1103.2 603.8 1102.5 608C1101.8 612.2 1099.2 619 1098.5 622C1097.8 625 1098.8 624.7 1098.5 626C1098.2 627.3 1097.2 626.7 1096.5 630C1095.8 633.3 1095 643.2 1094.5 646C1094 648.8 1093.5 644 1093.5 647C1093.5 650 1093.8 660.2 1094.5 664C1095.2 667.8 1096.4 668.6 1097.5 670C1098.6 671.4 1098.6 672.1 1101 672.5C1103.4 672.9 1109.2 672.8 1112 672.5C1114.8 672.2 1113 673 1118 670.5C1123 668 1132.5 664 1142 657.5C1151.5 651 1166.1 639.4 1175 631.5C1183.9 623.6 1190.4 617.8 1195.5 610C1200.6 602.3 1203.3 589.6 1205.5 585C1207.8 580.4 1207.6 582.8 1209 582.5C1210.4 582.3 1212.6 582.4 1214 583.5C1215.4 584.6 1216.9 587.1 1217.5 589C1218.1 590.9 1218.8 589.8 1217.5 595C1216.2 600.2 1214.5 606.7 1209.5 620C1204.5 633.3 1191.4 664.6 1187.5 675C1183.6 685.4 1174.3 689.1 1186 682.5C1197.8 675.9 1240.7 646.5 1258 635.5C1275.3 624.5 1283.2 620.3 1290 616.5C1296.8 612.7 1295.9 616.3 1299 612.5C1302.1 608.8 1305.5 598.7 1308.5 594C1311.5 589.3 1314.9 586.1 1317 584.5C1319.1 582.9 1319.6 583.9 1321 584.5C1322.4 585.1 1324.6 585.9 1325.5 588C1326.4 590.1 1328.3 592.5 1326.5 597C1324.7 601.5 1317.8 609.3 1314.5 615C1311.2 620.7 1309.5 623.7 1306.5 631C1303.5 638.3 1298.5 651.3 1296.5 659C1294.5 666.7 1294.3 672.7 1294.5 677C1294.7 681.3 1296.3 683.1 1297.5 685C1298.8 686.9 1299.3 687.9 1302 688.5C1304.8 689.1 1310.7 688.8 1314 688.5C1317.3 688.2 1316.8 688.7 1322 686.5C1327.2 684.3 1335 681.8 1345 675.5C1355 669.2 1369.8 658.7 1382 648.5C1394.2 638.3 1411.3 620.7 1418 614.5C1424.7 608.3 1421 612 1422 611.5C1423 611 1423.3 611.1 1424 611.5C1424.8 611.9 1426.1 613.1 1426.5 614C1426.9 614.9 1427.2 615.5 1426.5 617C1425.8 618.5 1429.8 615.8 1422.5 623C1415.3 630.3 1394.6 650.6 1383 660.5C1371.4 670.4 1361.8 676.7 1353 682.5C1344.2 688.3 1336 692.7 1330 695.5C1324 698.3 1320.5 698.8 1317 699.5C1313.5 700.2 1310.5 699.3 1309 699.5C1307.5 699.7 1309.8 700.5 1308 700.5C1306.2 700.5 1301.2 700.5 1298 699.5C1294.8 698.5 1291.3 696.3 1289 694.5C1286.8 692.8 1285.8 691.4 1284.5 689C1283.3 686.6 1282 685 1281.5 680C1281 675 1280.8 665.2 1281.5 659C1282.2 652.8 1283.8 647.8 1285.5 643C1287.2 638.2 1290.5 632.5 1291.5 630C1292.5 627.5 1291.8 628.4 1291.5 628C1291.3 627.6 1295.6 624.3 1290 627.5C1284.4 630.8 1263.8 643.7 1258 647.5C1252.2 651.3 1261.7 646.3 1255 650.5C1248.3 654.7 1230.8 664.1 1218 672.5C1205.3 680.9 1187.9 689.4 1178.5 701C1169.1 712.6 1166.5 730.8 1161.5 742C1156.5 753.2 1152.7 759 1148.5 768C1144.3 777 1141.5 785.5 1136.5 796C1131.5 806.5 1125.8 817.5 1118.5 831C1111.2 844.5 1100.8 863.3 1092.5 877C1084.2 890.7 1077.3 900.7 1068.5 913C1059.7 925.3 1047 941.7 1039.5 951C1032 960.3 1031.3 961 1023.5 969C1015.7 977 997.1 993.6 992.5 999C987.9 1004.4 992.1 999.9 996 1001.5C999.9 1003.1 1008.5 1006.3 1016 1008.5C1023.5 1010.7 1033.2 1013.5 1041 1014.5C1048.8 1015.5 1058 1014.8 1063 1014.5C1068 1014.2 1067.2 1013.8 1071 1012.5C1074.8 1011.2 1081.7 1009.2 1086 1006.5C1090.3 1003.8 1094.5 998.2 1097 996.5C1099.5 994.8 1099.9 996.1 1101 996.5C1102.1 996.9 1103.1 997.9 1103.5 999C1103.9 1000.1 1103.8 1001.8 1103.5 1003C1103.2 1004.2 1103.3 1004.1 1101.5 1006C1099.8 1007.9 1096.1 1012.1 1093 1014.5C1089.9 1016.9 1086.8 1018.8 1083 1020.5C1079.2 1022.2 1074 1023.8 1070 1024.5C1066 1025.2 1061 1024.3 1059 1024.5C1057 1024.7 1060.5 1025.3 1058 1025.5C1055.5 1025.7 1046.5 1025.7 1044 1025.5C1041.5 1025.3 1044.3 1024.7 1043 1024.5C1041.7 1024.3 1038.2 1024.8 1036 1024.5C1033.8 1024.2 1033.5 1023.2 1030 1022.5C1026.5 1021.8 1021.5 1022 1015 1020.5C1008.5 1019 996.7 1015.5 991 1013.5C985.3 1011.5 983.3 1009.2 981 1008.5C978.7 1007.8 979.5 1008.2 977 1009.5C974.5 1010.8 970.7 1014.5 966 1016.5C961.3 1018.5 953.8 1020.7 949 1021.5C944.2 1022.3 940.5 1022 937 1021.5C933.5 1021 930.6 1019.9 928 1018.5C925.4 1017.1 923.6 1016.1 921.5 1013C919.4 1009.9 916.7 1004.5 915.5 1000C914.3 995.5 914.5 988.5 914.5 986C914.5 983.5 915.2 986.8 915.5 985C915.8 983.2 916.8 977.1 916.5 975C916.3 972.9 915.9 973.8 914 972.5C912.1 971.3 914.3 973.8 905 967.5C895.7 961.2 880 950.8 858 934.5C836 918.2 798.7 889.5 773 869.5C747.3 849.5 730 834.2 704 814.5C678 794.8 637.3 765.8 617 751.5C596.7 737.2 595 736.5 582 728.5C569 720.5 553.7 711.5 539 703.5C524.3 695.5 501.8 684.3 494 680.5C486.2 676.7 493.8 681.3 492 680.5C490.2 679.7 485.3 676.5 483 675.5C480.7 674.5 480.1 672.6 478 674.5C475.9 676.4 472.1 683.9 470.5 687C468.9 690.1 469.2 691.7 468.5 693C467.8 694.3 472 684.2 466.5 695C461 705.8 441 747.2 435.5 758C430 768.8 434.8 757.3 433.5 760C432.2 762.7 428.8 771.3 427.5 774C426.2 776.7 437 753.2 425.5 776C414 798.8 369.7 888.2 358.5 911C347.3 933.8 360.8 907.8 358.5 913C356.2 918.2 350.3 929 344.5 942C338.7 955 327.3 981.3 323.5 991C319.7 1000.7 321.5 998.2 321.5 1000C321.5 1001.8 323 1001 323.5 1002C324 1003 325.3 1003.5 324.5 1006C323.7 1008.5 319.5 1014.8 318.5 1017C317.5 1019.2 318.8 1018.3 318.5 1019C318.2 1019.7 317.7 1018.8 316.5 1021C315.3 1023.2 313.3 1029.1 311.5 1032C309.8 1034.9 307.6 1037.3 306 1038.5C304.4 1039.8 303.2 1039.5 302 1039.5C300.8 1039.5 300.1 1039.3 299 1038.5C297.9 1037.8 296.1 1037.3 295.5 1035C294.9 1032.8 294.5 1030 295.5 1025C296.5 1020 298 1014.7 301.5 1005C305 995.3 312.7 976 316.5 967C320.3 958 321.8 957 324.5 951C327.2 945 323.7 949.7 332.5 931C341.3 912.3 370 854.7 377.5 839C385 823.3 363.7 864.8 377.5 837C391.3 809.2 446.3 699.8 460.5 672C474.7 644.2 462.4 670.9 462.5 670C462.6 669.1 461.9 667.1 461 666.5C460.1 665.9 464 663.8 457 666.5C450 669.2 429.3 678.5 419 682.5C408.7 686.5 403.2 688.2 395 690.5C386.8 692.8 375.2 695.5 370 696.5C364.8 697.5 367.2 696 364 696.5C360.8 697 357.7 699 351 699.5C344.3 700 330.5 700.2 324 699.5C317.5 698.8 315.4 697.4 312 695.5C308.6 693.6 305.4 690.6 303.5 688C301.6 685.4 300.7 683.2 300.5 680C300.3 676.8 301.7 671.7 302.5 669C303.3 666.3 303.4 666.4 305.5 664C307.6 661.6 311.8 657.1 315 654.5C318.3 651.9 321.2 650.3 325 648.5C328.8 646.7 332.5 645 338 643.5C343.5 642 348.3 640.3 358 639.5C367.7 638.7 389.5 638.5 396 638.5C402.5 638.5 394.5 639.2 397 639.5C399.5 639.8 406.8 639.8 411 640.5C415.2 641.2 418.5 642.8 422 643.5C425.5 644.2 426.5 643.2 432 644.5C437.5 645.8 450.3 650.3 455 651.5C459.7 652.7 456.3 653.3 460 651.5C463.8 649.8 471.3 649.8 477.5 641C483.8 632.3 494.2 606.3 497.5 599C500.8 591.7 495.7 600.8 497.5 597C499.3 593.2 506.7 579.8 508.5 576C510.3 572.2 508.2 574.7 508.5 574C508.8 573.3 507.5 577.8 510.5 572C513.5 566.2 523.8 544.8 526.5 539C529.2 533.2 526.2 537.7 526.5 537C526.8 536.3 528.2 535.7 528.5 535C528.8 534.3 526.3 537.7 528.5 533C530.7 528.3 537.3 516.2 541.5 507C545.7 497.8 549 487.8 553.5 478C558 468.2 562.3 462.3 568.5 448C574.7 433.7 586.3 402.2 590.5 392C594.7 381.8 592.8 388.7 593.5 387C594.2 385.3 593.8 383.7 594.5 382C595.2 380.3 596.8 378.7 597.5 377C598.2 375.3 597.5 374.5 598.5 372C599.5 369.5 600.8 368.7 603.5 362C606.2 355.3 612 339.7 614.5 332C617 324.3 617 320.8 618.5 316C620 311.2 622.5 306.3 623.5 303C624.5 299.7 624 297.7 624.5 296C625 294.3 625.7 296 626.5 293C627.3 290 628.2 283.2 629.5 278C630.8 272.8 633.7 265.5 634.5 262C635.3 258.5 634 259.8 634.5 257C635 254.2 636.8 250.2 637.5 245C638.2 239.8 638.2 229.3 638.5 226C638.8 222.7 639.3 230.2 639.5 225C639.7 219.8 639.7 200.2 639.5 195C639.3 189.8 638.8 196.5 638.5 194C638.2 191.5 638.2 184.2 637.5 180C636.8 175.8 636.2 173.3 634.5 169C632.8 164.7 630.9 159.1 627.5 154C624.1 148.9 618.9 142.6 614 138.5C609.1 134.4 602.5 131.5 598 129.5C593.5 127.5 589.8 127 587 126.5C584.2 126 582.2 126.7 581 126.5C579.8 126.3 586.8 125.5 580 125.5C573.2 125.5 548.3 125.8 540 126.5C531.7 127.2 532.5 129 530 129.5C527.5 130 530.2 128 525 129.5C519.8 131 503.8 137 499 138.5C494.2 140 503.5 135.7 496 138.5C488.5 141.3 461.3 152.3 454 155.5C446.7 158.7 454.3 156.3 452 157.5C449.7 158.7 442.3 161.3 440 162.5C437.7 163.7 445.7 160.3 438 164.5C430.3 168.7 403.7 182.2 394 187.5C384.3 192.8 391.2 188.7 380 196.5C368.8 204.3 341.3 223.7 327 234.5C312.7 245.3 304.8 252.2 294 261.5C283.2 270.8 274.4 278.3 262 290.5C249.6 302.8 230.1 323.4 219.5 335C208.9 346.6 205.8 350.7 198.5 360C191.2 369.3 181.8 381.8 175.5 391C169.2 400.2 164.8 407.7 160.5 415C156.2 422.3 151.7 430.7 149.5 435C147.3 439.3 148.2 439.7 147.5 441C146.8 442.3 147.8 437.8 145.5 443C143.2 448.2 136.3 464.2 133.5 472C130.7 479.8 129.8 484.3 128.5 490C127.2 495.7 126.2 498.8 125.5 506C124.8 513.2 124.5 528.3 124.5 533C124.5 537.7 125.2 531.3 125.5 534C125.8 536.7 125.5 543.8 126.5 549C127.5 554.2 129 559.8 131.5 565C134 570.2 137.8 575.8 141.5 580C145.3 584.3 149.4 587.6 154 590.5C158.6 593.4 163 595.8 169 597.5C175 599.2 185.9 599.4 190 600.5C194.1 601.6 192.9 602.6 193.5 604C194.1 605.4 194.1 607.4 193.5 609C192.9 610.6 190.9 612.6 190 613.5C189.1 614.4 189.8 614.5 188 614.5C186.2 614.5 184.7 615.3 179 613.5C173.3 611.7 160.2 606.5 154 603.5C147.8 600.5 145.4 598.3 142 595.5C138.6 592.8 136.3 590.3 133.5 587C130.8 583.8 128 580.2 125.5 576C123 571.8 120.7 568.5 118.5 562C116.3 555.5 113.3 546.5 112.5 537C111.7 527.5 113.2 510.5 113.5 505C113.8 499.5 114.2 505.8 114.5 504C114.8 502.2 114.7 497.5 115.5 494C116.3 490.5 118.8 485.5 119.5 483C120.2 480.5 118.7 482.2 119.5 479C120.3 475.8 123 467.8 124.5 464C126 460.2 127.8 457.8 128.5 456C129.2 454.2 126.3 458.3 128.5 453C130.7 447.7 136.2 434.2 141.5 424C146.8 413.8 152.7 403.8 160.5 392C168.3 380.2 177.2 367.2 188.5 353C199.8 338.8 215.9 320.4 228.5 307C241.1 293.6 252.1 283.6 264 272.5C275.9 261.4 289 249.8 300 240.5C311 231.2 319 224.7 330 216.5C341 208.3 351.5 200.8 366 191.5C380.5 182.2 400.5 169.5 417 160.5C433.5 151.5 451.8 143.3 465 137.5C478.2 131.7 485.8 128.8 496 125.5C506.2 122.2 517.2 119.3 526 117.5C534.8 115.7 545.1 115.1 549 114.5C552.9 113.9 545.2 114.2 549.5 114ZM2364.5 260C2365.8 259.8 2370 258.8 2372 259.5C2374 260.2 2375.4 262.1 2376.5 264C2377.6 265.9 2378.2 268.8 2378.5 271C2378.8 273.2 2379.8 271.7 2378.5 277C2377.2 282.3 2374.3 293.5 2370.5 303C2366.7 312.5 2364.2 318.3 2355.5 334C2346.8 349.7 2331.2 376.7 2318.5 397C2305.8 417.3 2296.7 431.7 2279.5 456C2262.3 480.3 2230.5 523.2 2215.5 543C2200.5 562.8 2195.5 566.7 2189.5 575C2183.5 583.3 2181.2 589.7 2179.5 593C2177.8 596.3 2182.5 588.5 2179.5 595C2176.5 601.5 2164.8 624.7 2161.5 632C2158.2 639.3 2161 635.5 2159.5 639C2158 642.5 2155.7 645.7 2152.5 653C2149.3 660.3 2143.3 675.7 2140.5 683C2137.7 690.3 2136.3 694.3 2135.5 697C2134.8 699.8 2132.3 703.5 2136 699.5C2139.7 695.5 2153.1 678.8 2157.5 673C2161.9 667.3 2156 673.2 2162.5 665C2169 656.8 2186.6 634.9 2196.5 624C2206.4 613.1 2215.9 604.9 2222 599.5C2228.1 594.1 2229.5 593.7 2233 591.5C2236.5 589.3 2239.5 587.5 2243 586.5C2246.5 585.5 2251.5 585.3 2254 585.5C2256.5 585.7 2256.6 586.4 2258 587.5C2259.4 588.6 2261.4 590.6 2262.5 592C2263.6 593.4 2264 592.7 2264.5 596C2265 599.3 2265.5 609.2 2265.5 612C2265.5 614.8 2264.7 611.5 2264.5 613C2264.3 614.5 2265.2 616.7 2264.5 621C2263.8 625.3 2261.3 632 2260.5 639C2259.7 646 2259.5 658.8 2259.5 663C2259.5 667.2 2260.3 663 2260.5 664C2260.7 665 2259.8 667.3 2260.5 669C2261.3 670.8 2262.6 673.4 2265 674.5C2267.4 675.6 2270 677 2275 675.5C2280 674 2289 669 2295 665.5C2301 662 2303.7 660 2311 654.5C2318.3 649 2329.3 641 2339 632.5C2348.7 624 2361.2 610.5 2369 603.5C2376.8 596.5 2381.2 593.7 2386 590.5C2390.8 587.3 2394.2 586 2398 584.5C2401.8 583 2405 581.8 2409 581.5C2413 581.2 2418.7 581.7 2422 582.5C2425.3 583.3 2427.2 586.2 2429 586.5C2430.8 586.8 2431.3 584.8 2433 584.5C2434.7 584.2 2437.4 584.1 2439 584.5C2440.6 584.9 2441.9 584.8 2442.5 587C2443.1 589.3 2443.7 592.8 2442.5 598C2441.3 603.2 2437.7 610.7 2435.5 618C2433.3 625.3 2430.5 636.5 2429.5 642C2428.5 647.5 2429.7 649.3 2429.5 651C2429.3 652.7 2428.5 648.8 2428.5 652C2428.5 655.2 2428.8 665.8 2429.5 670C2430.2 674.2 2431.4 675.1 2432.5 677C2433.6 678.9 2434.8 680.4 2436 681.5C2437.3 682.6 2437.2 683.2 2440 683.5C2442.8 683.8 2447.8 684.8 2453 683.5C2458.2 682.2 2463.7 680.2 2471 675.5C2478.3 670.8 2486.1 665.4 2497 655.5C2507.9 645.6 2528.9 623.8 2536.5 616C2544.1 608.3 2538.7 615 2542.5 609C2546.3 603 2555.8 585.9 2559.5 580C2563.3 574.1 2563.4 574.9 2565 573.5C2566.6 572.1 2567.5 571.7 2569 571.5C2570.5 571.3 2572.8 571.8 2574 572.5C2575.3 573.3 2576.3 573.9 2576.5 576C2576.8 578.1 2580.2 575.8 2575.5 585C2570.8 594.2 2555.7 617.8 2548.5 631C2541.3 644.2 2535.3 657.8 2532.5 664C2529.8 670.3 2527.5 673.7 2532 668.5C2536.5 663.3 2548.8 646.3 2559.5 633C2570.3 619.8 2586.9 599.6 2596.5 589C2606.1 578.4 2611.8 574.1 2617 569.5C2622.3 564.9 2624.3 563.7 2628 561.5C2631.7 559.3 2636.7 557.3 2639 556.5C2641.3 555.7 2640.8 556.2 2642 556.5C2643.2 556.8 2644.8 557.6 2646 558.5C2647.3 559.4 2648.6 560.4 2649.5 562C2650.4 563.6 2651.3 565.2 2651.5 568C2651.7 570.8 2651.7 573.8 2650.5 579C2649.3 584.2 2649.2 586.5 2644.5 599C2639.8 611.5 2626.8 642.3 2622.5 654C2618.2 665.7 2614.1 671.6 2618.5 669C2622.9 666.4 2640.3 646.8 2649 638.5C2657.8 630.3 2665 624 2671 619.5C2677 615 2681 613.2 2685 611.5C2689 609.8 2692.7 609.5 2695 609.5C2697.3 609.5 2697.8 610.3 2699 611.5C2700.3 612.8 2701.9 614.4 2702.5 617C2703.1 619.6 2703.5 621 2702.5 627C2701.5 633 2697.7 645.8 2696.5 653C2695.3 660.2 2695.3 666 2695.5 670C2695.7 674 2696.8 675.4 2697.5 677C2698.3 678.6 2698.3 678.6 2700 679.5C2701.8 680.4 2704.3 682.2 2708 682.5C2711.7 682.8 2717.3 682.3 2722 681.5C2726.7 680.7 2731 679.5 2736 677.5C2741 675.5 2747.2 672.3 2752 669.5C2756.8 666.7 2760.7 663.8 2765 660.5C2769.3 657.2 2771.8 655.4 2778 649.5C2784.3 643.6 2794.9 633.4 2802.5 625C2810.1 616.6 2816.2 609.3 2823.5 599C2830.8 588.7 2839.5 575.7 2846.5 563C2853.5 550.3 2860.8 534 2865.5 523C2870.2 512 2872.2 504.7 2874.5 497C2876.8 489.3 2878.5 482.2 2879.5 477C2880.5 471.8 2880.2 468 2880.5 466C2880.8 464 2881.3 467.7 2881.5 465C2881.7 462.3 2881.3 452.7 2881.5 450C2881.7 447.3 2882.5 449.3 2882.5 449C2882.5 448.7 2881.7 449.3 2881.5 448C2881.3 446.7 2882.1 442.9 2881.5 441C2880.9 439.1 2879.3 437.7 2878 436.5C2876.7 435.3 2874.6 435.3 2873.5 434C2872.4 432.8 2871.5 430.7 2871.5 429C2871.5 427.3 2872.6 425.3 2873.5 424C2874.4 422.8 2875.4 421.9 2877 421.5C2878.6 421.1 2881.1 420.8 2883 421.5C2884.9 422.3 2887.1 424.4 2888.5 426C2889.9 427.6 2890.5 428.3 2891.5 431C2892.5 433.7 2894 436.5 2894.5 442C2895 447.5 2895.5 455.3 2894.5 464C2893.5 472.7 2891.2 484.2 2888.5 494C2885.8 503.8 2883 512 2878.5 523C2874 534 2868.5 547.3 2861.5 560C2854.5 572.7 2843.8 588.5 2836.5 599C2829.2 609.5 2826.1 613.6 2817.5 623C2808.9 632.4 2794.9 646.8 2785 655.5C2775.1 664.3 2767 669.8 2758 675.5C2749 681.2 2736.5 686.8 2731 689.5C2725.5 692.2 2727.5 690.8 2725 691.5C2722.5 692.2 2719.8 693.2 2716 693.5C2712.2 693.8 2706 694.2 2702 693.5C2698 692.8 2694.4 690.9 2692 689.5C2689.6 688.1 2689.1 687.9 2687.5 685C2685.9 682.1 2683.3 677.2 2682.5 672C2681.7 666.8 2681.3 661.7 2682.5 654C2683.7 646.3 2688.6 631.3 2689.5 626C2690.4 620.8 2688.8 623.1 2688 622.5C2687.3 621.9 2687.2 621.5 2685 622.5C2682.8 623.5 2684.8 619.1 2675 628.5C2665.3 637.9 2636.5 668.8 2626.5 679C2616.5 689.2 2618.3 687.6 2615 689.5C2611.8 691.4 2609.1 691.1 2607 690.5C2604.9 689.9 2603.4 687.3 2602.5 686C2601.6 684.8 2601.5 685 2601.5 683C2601.5 681 2601 679.8 2602.5 674C2604 668.2 2608.8 652.8 2610.5 648C2612.2 643.2 2610.7 650 2612.5 645C2614.3 640 2617.8 628 2621.5 618C2625.2 608 2632 592.8 2634.5 585C2637 577.2 2636.6 573.4 2636.5 571C2636.4 568.6 2635.9 569.6 2634 570.5C2632.1 571.4 2629.9 572.1 2625 576.5C2620.1 580.9 2615.1 584.8 2604.5 597C2593.9 609.3 2573 635 2561.5 650C2550 665 2543.2 676.5 2535.5 687C2527.8 697.5 2519.4 708.1 2515.5 713C2511.6 717.9 2513.4 715.8 2512 716.5C2510.6 717.3 2508.8 718.1 2507 717.5C2505.3 716.9 2502.4 715.6 2501.5 713C2500.6 710.4 2500.7 706.5 2501.5 702C2502.3 697.5 2505.2 689.5 2506.5 686C2507.8 682.5 2507.7 685.3 2509.5 681C2511.3 676.7 2514.5 666.7 2517.5 660C2520.5 653.3 2525.9 644.4 2527.5 641C2529.1 637.6 2529.9 636.8 2527 639.5C2524.1 642.3 2517 651 2510 657.5C2503 664 2492.8 672.8 2485 678.5C2477.2 684.2 2469 688.7 2463 691.5C2457 694.3 2453 694.8 2449 695.5C2445 696.2 2442.3 696.2 2439 695.5C2435.7 694.8 2431.8 693.3 2429 691.5C2426.3 689.8 2424.3 687.4 2422.5 685C2420.8 682.6 2419.8 680.8 2418.5 677C2417.2 673.2 2415.2 667.8 2414.5 662C2413.8 656.2 2413.8 648.5 2414.5 642C2415.2 635.5 2417.9 626.9 2418.5 623C2419.1 619.1 2418.5 619 2418 618.5C2417.5 618 2419.6 615.3 2415.5 620C2411.4 624.8 2401.1 638.6 2393.5 647C2385.9 655.4 2376.8 664.3 2370 670.5C2363.3 676.8 2357.3 681.3 2353 684.5C2348.7 687.7 2347.2 688.5 2344 689.5C2340.8 690.5 2336.3 690.7 2334 690.5C2331.7 690.3 2331.3 689.8 2330 688.5C2328.8 687.3 2327.1 686.1 2326.5 683C2325.9 679.9 2325.8 674.5 2326.5 670C2327.2 665.5 2329.3 659.2 2330.5 656C2331.7 652.8 2333.1 652.1 2333.5 651C2333.9 649.9 2333.8 649.4 2333 649.5C2332.3 649.6 2332.8 648.5 2329 651.5C2325.2 654.5 2316 663 2310 667.5C2304 672 2298.5 675.5 2293 678.5C2287.5 681.5 2282 684.2 2277 685.5C2272 686.8 2266.5 686.8 2263 686.5C2259.5 686.2 2257.9 684.8 2256 683.5C2254.1 682.3 2252.8 680.6 2251.5 679C2250.3 677.4 2249.5 676.8 2248.5 674C2247.5 671.2 2246 667 2245.5 662C2245 657 2245.3 647.2 2245.5 644C2245.7 640.8 2246 646.5 2246.5 643C2247 639.5 2247.7 628.2 2248.5 623C2249.3 617.8 2251 615.8 2251.5 612C2252 608.2 2251.8 602.3 2251.5 600C2251.3 597.8 2250.9 598.8 2250 598.5C2249.1 598.3 2247.8 598 2246 598.5C2244.2 599 2242.3 599.3 2239 601.5C2235.7 603.7 2232.6 605.4 2226 611.5C2219.4 617.6 2211.8 623.6 2199.5 638C2187.3 652.4 2160.5 687.5 2152.5 698C2144.5 708.5 2153.8 697.7 2151.5 701C2149.2 704.3 2142.7 712 2138.5 718C2134.3 724 2129.9 732.6 2126.5 737C2123.1 741.4 2120.3 743.4 2118 744.5C2115.8 745.6 2114.4 744.3 2113 743.5C2111.6 742.8 2110.1 741.9 2109.5 740C2108.9 738.1 2109.2 733.8 2109.5 732C2109.8 730.2 2111 730.5 2111.5 729C2112 727.5 2111.3 726.3 2112.5 723C2113.7 719.7 2117.2 712.7 2118.5 709C2119.8 705.3 2116 713 2120.5 701C2125 689 2140.3 649.5 2145.5 637C2150.7 624.5 2149.7 630.2 2151.5 626C2153.3 621.8 2153.5 618.7 2156.5 612C2159.5 605.3 2166.7 592.2 2169.5 586C2172.3 579.8 2172.5 577.2 2173.5 575C2174.5 572.8 2174.5 575.2 2175.5 573C2176.5 570.8 2172.8 576 2179.5 562C2186.2 548 2207.8 504 2215.5 489C2223.2 474 2223.5 475.8 2225.5 472C2227.5 468.2 2224.8 471.3 2227.5 466C2230.2 460.7 2239.2 444.7 2241.5 440C2243.8 435.3 2233.8 451.8 2241.5 438C2249.2 424.2 2277.7 373.5 2287.5 357C2297.3 340.5 2295.3 346.8 2300.5 339C2305.7 331.2 2311.3 320.3 2318.5 310C2325.7 299.7 2337.3 284.6 2343.5 277C2349.8 269.4 2352.9 267.3 2356 264.5C2359.1 261.8 2360.7 261.2 2362 260.5C2363.3 259.8 2363.6 260.6 2364 260.5C2364.4 260.4 2363.2 260.2 2364.5 260ZM2364 275.5C2362.2 277 2358.3 279.4 2353.5 285C2348.8 290.6 2346 293.3 2335.5 309C2325 324.7 2299.8 364 2290.5 379C2281.2 394 2283 393.2 2279.5 399C2276 404.8 2275.7 403.3 2269.5 414C2263.3 424.7 2252.5 443.8 2242.5 463C2232.5 482.2 2214.2 518.7 2209.5 529C2204.8 539.3 2210 530.5 2214.5 525C2219 519.5 2232.7 501.3 2236.5 496C2240.3 490.7 2231.7 501.3 2237.5 493C2243.3 484.7 2259.2 464 2271.5 446C2283.8 428 2299.5 404.3 2311.5 385C2323.5 365.7 2336.5 342.5 2343.5 330C2350.5 317.5 2350.2 317.5 2353.5 310C2356.8 302.5 2361.7 290.7 2363.5 285C2365.3 279.3 2364.4 277.6 2364.5 276C2364.6 274.4 2365.8 274 2364 275.5ZM1232.5 522C1233.5 522 1236.5 521.8 1238 522.5C1239.5 523.2 1240.8 524.1 1241.5 526C1242.3 527.9 1242.7 532 1242.5 534C1242.3 536 1242.3 536.1 1240.5 538C1238.8 539.9 1233.9 544.1 1232 545.5C1230.1 546.9 1230.3 546.3 1229 546.5C1227.7 546.7 1225.8 547.3 1224 546.5C1222.3 545.8 1219.6 543.6 1218.5 542C1217.4 540.4 1216.7 539.7 1217.5 537C1218.3 534.3 1221.6 528.4 1223.5 526C1225.4 523.6 1227.6 523.1 1229 522.5C1230.4 521.9 1231.4 522.6 1232 522.5C1232.6 522.4 1231.5 522 1232.5 522ZM1343.5 537C1344.5 536.8 1347.2 536 1349 536.5C1350.8 537 1353.4 538.1 1354.5 540C1355.6 541.9 1355.7 546.2 1355.5 548C1355.3 549.8 1354.8 549.6 1353.5 551C1352.3 552.4 1350.3 554.9 1348 556.5C1345.8 558.1 1342.2 560 1340 560.5C1337.8 561 1336.4 560.3 1335 559.5C1333.6 558.8 1332.3 557.4 1331.5 556C1330.8 554.6 1330.3 552.7 1330.5 551C1330.7 549.3 1331.1 547.9 1332.5 546C1333.9 544.1 1337.3 540.9 1339 539.5C1340.8 538.1 1342.3 537.9 1343 537.5C1343.8 537.1 1342.5 537.2 1343.5 537ZM2411 594.5C2409.7 594.8 2407.5 594.8 2404 596.5C2400.5 598.2 2394 601.8 2390 604.5C2386 607.2 2384.1 608.6 2380 612.5C2375.9 616.4 2370.1 622.4 2365.5 628C2360.9 633.6 2356.2 640.2 2352.5 646C2348.8 651.8 2345.5 658.7 2343.5 663C2341.5 667.3 2340.9 669.6 2340.5 672C2340.1 674.4 2340.3 676.8 2341 677.5C2341.8 678.3 2340.8 679.5 2345 676.5C2349.2 673.5 2357.6 667.3 2366 659.5C2374.4 651.8 2388.3 637.6 2395.5 630C2402.8 622.4 2405.3 619.3 2409.5 614C2413.7 608.7 2419.3 601.3 2420.5 598C2421.8 594.8 2418.4 595.1 2417 594.5C2415.6 593.9 2413 594.5 2412 594.5C2411 594.5 2412.3 594.2 2411 594.5ZM888 595.5C885.5 597 878.4 600.8 874 604.5C869.6 608.3 864.3 614.3 861.5 618C858.7 621.7 857.1 625.3 857 626.5C856.9 627.8 858 627.3 861 625.5C864 623.7 870.4 619.6 875 615.5C879.6 611.4 885.9 604.1 888.5 601C891.1 597.9 890.4 597.9 890.5 597C890.6 596.1 889.4 595.8 889 595.5C888.6 595.3 890.5 594 888 595.5ZM361 651.5C356.8 652.5 343.8 655 337 657.5C330.2 660 323.6 664.3 320 666.5C316.4 668.8 316.6 669.6 315.5 671C314.4 672.4 313.8 673.3 313.5 675C313.2 676.7 312.9 679.4 313.5 681C314.1 682.6 315.3 683.6 317 684.5C318.8 685.4 318.7 686.2 324 686.5C329.3 686.8 344.7 686.7 349 686.5C353.3 686.3 346.2 686.2 350 685.5C353.8 684.8 367.7 683.3 372 682.5C376.3 681.7 374.7 680.8 376 680.5C377.3 680.2 375.7 681.7 380 680.5C384.3 679.3 397.8 674.7 402 673.5C406.2 672.3 399.2 675.5 405 673.5C410.8 671.5 431.8 663.8 437 661.5C442.2 659.2 436.7 660 436 659.5C435.3 659 438.5 659.7 433 658.5C427.5 657.3 414.8 653.7 403 652.5C391.2 651.3 369 651.7 362 651.5C355 651.3 365.2 650.5 361 651.5ZM1154 716.5C1147.6 721.1 1131.7 732.2 1116 744.5C1100.3 756.8 1078.9 773.3 1060 790.5C1041.1 807.8 1016.6 832.9 1002.5 848C988.4 863.1 984.5 868.8 975.5 881C966.5 893.2 955.3 909.7 948.5 921C941.7 932.3 937.7 941.5 934.5 949C931.3 956.5 928.4 961.8 929.5 966C930.6 970.3 937.6 972.4 941 974.5C944.4 976.6 947 976.8 950 978.5C953 980.2 955.2 982.3 959 984.5C962.8 986.7 969.5 990.2 973 991.5C976.5 992.8 972.4 998.8 980 992.5C987.6 986.3 1010.1 962.8 1018.5 954C1026.9 945.3 1023.3 949.2 1030.5 940C1037.7 930.8 1051.3 913.8 1061.5 899C1071.7 884.2 1079.2 873.5 1091.5 851C1103.8 828.5 1125 785.8 1135.5 764C1146 742.2 1151.3 727.8 1154.5 720C1157.7 712.2 1154.6 717.6 1154.5 717C1154.4 716.4 1160.4 711.9 1154 716.5ZM927 981.5C926.6 981.8 925.6 979.9 925.5 983C925.4 986.1 925.8 996.2 926.5 1000C927.2 1003.8 927.9 1004.3 929.5 1006C931.1 1007.8 932.6 1009.9 936 1010.5C939.4 1011.1 945.5 1010.5 950 1009.5C954.5 1008.5 960.8 1005.8 963 1004.5C965.3 1003.3 963.8 1002.8 963.5 1002C963.2 1001.2 963.9 1001.1 961 999.5C958.1 997.9 951.5 995.5 946 992.5C940.5 989.5 931.2 983.3 928 981.5C924.8 979.7 927.4 981.3 927 981.5Z" fill="#FAF9F7" fill-rule="evenodd"/></svg>