<svg xmlns="http://www.w3.org/2000/svg" viewBox="0 0 1200 420" role="img" aria-label="ESSENCE">

<g transform="translate(470.000,70.000) scale(0.448276)">
  <path d="M 483.000 50.000 L 481.000 52.000 L 481.000 56.000 L 482.000 57.000 L 486.000 57.000 L 488.000 55.000 L 488.000 52.000 L 486.000 50.000 Z M 538.000 2.000 L 538.000 44.000 L 543.000 44.000 L 543.000 16.000 L 544.000 15.000 L 546.000 17.000 L 556.000 38.000 L 557.000 39.000 L 560.000 39.000 L 573.000 14.000 L 574.000 15.000 L 574.000 44.000 L 579.000 44.000 L 579.000 2.000 L 574.000 2.000 L 572.000 4.000 L 559.000 30.000 L 557.000 29.000 L 544.000 3.000 L 543.000 2.000 Z M 399.000 2.000 L 399.000 44.000 L 404.000 44.000 L 404.000 26.000 L 405.000 25.000 L 425.000 25.000 L 426.000 26.000 L 426.000 44.000 L 431.000 44.000 L 431.000 3.000 L 430.000 2.000 L 426.000 2.000 L 426.000 20.000 L 425.000 21.000 L 405.000 21.000 L 404.000 20.000 L 404.000 2.000 Z M 358.000 3.000 L 356.000 3.000 L 355.000 2.000 L 337.000 2.000 L 336.000 3.000 L 336.000 44.000 L 341.000 44.000 L 341.000 28.000 L 342.000 27.000 L 352.000 27.000 L 353.000 26.000 L 357.000 26.000 L 359.000 25.000 L 363.000 21.000 L 364.000 19.000 L 364.000 10.000 L 362.000 6.000 Z M 341.000 7.000 L 342.000 6.000 L 353.000 6.000 L 357.000 8.000 L 359.000 11.000 L 359.000 18.000 L 355.000 22.000 L 351.000 22.000 L 350.000 23.000 L 342.000 23.000 L 341.000 22.000 Z M 251.000 2.000 L 250.000 3.000 L 250.000 44.000 L 255.000 44.000 L 255.000 2.000 Z M 213.000 2.000 L 209.000 2.000 L 209.000 34.000 L 208.000 35.000 L 208.000 37.000 L 206.000 40.000 L 204.000 41.000 L 200.000 41.000 L 198.000 40.000 L 195.000 37.000 L 195.000 33.000 L 190.000 33.000 L 190.000 38.000 L 191.000 40.000 L 195.000 44.000 L 197.000 44.000 L 198.000 45.000 L 206.000 45.000 L 210.000 43.000 L 213.000 39.000 Z M 124.000 2.000 L 124.000 44.000 L 128.000 44.000 L 128.000 13.000 L 129.000 12.000 L 131.000 14.000 L 131.000 15.000 L 133.000 17.000 L 133.000 18.000 L 135.000 20.000 L 135.000 21.000 L 137.000 23.000 L 137.000 24.000 L 139.000 26.000 L 139.000 27.000 L 141.000 29.000 L 141.000 30.000 L 143.000 32.000 L 143.000 33.000 L 145.000 35.000 L 145.000 36.000 L 147.000 38.000 L 149.000 42.000 L 151.000 44.000 L 156.000 44.000 L 156.000 2.000 L 151.000 2.000 L 151.000 33.000 L 150.000 34.000 L 148.000 32.000 L 148.000 31.000 L 140.000 20.000 L 139.000 17.000 L 137.000 15.000 L 137.000 14.000 L 135.000 12.000 L 135.000 11.000 L 133.000 9.000 L 133.000 8.000 L 131.000 6.000 L 129.000 2.000 Z M 62.000 2.000 L 62.000 44.000 L 88.000 44.000 L 88.000 41.000 L 87.000 40.000 L 68.000 40.000 L 67.000 39.000 L 67.000 26.000 L 68.000 25.000 L 86.000 25.000 L 86.000 21.000 L 68.000 21.000 L 67.000 20.000 L 67.000 7.000 L 68.000 6.000 L 88.000 6.000 L 88.000 2.000 Z M 0.000 2.000 L 0.000 44.000 L 5.000 44.000 L 5.000 27.000 L 9.000 23.000 L 12.000 27.000 L 12.000 28.000 L 14.000 30.000 L 15.000 33.000 L 19.000 38.000 L 22.000 44.000 L 28.000 44.000 L 27.000 41.000 L 25.000 39.000 L 22.000 33.000 L 18.000 28.000 L 17.000 25.000 L 13.000 20.000 L 13.000 19.000 L 28.000 3.000 L 28.000 2.000 L 22.000 2.000 L 6.000 19.000 L 5.000 18.000 L 5.000 2.000 Z M 481.000 0.000 L 479.000 4.000 L 479.000 6.000 L 478.000 7.000 L 478.000 9.000 L 477.000 10.000 L 477.000 12.000 L 476.000 13.000 L 475.000 18.000 L 473.000 21.000 L 473.000 23.000 L 472.000 24.000 L 472.000 26.000 L 471.000 27.000 L 470.000 32.000 L 468.000 35.000 L 468.000 37.000 L 467.000 38.000 L 467.000 40.000 L 465.000 44.000 L 471.000 44.000 L 472.000 42.000 L 472.000 40.000 L 473.000 39.000 L 473.000 37.000 L 476.000 33.000 L 493.000 33.000 L 495.000 36.000 L 495.000 38.000 L 497.000 41.000 L 497.000 43.000 L 498.000 44.000 L 503.000 44.000 L 502.000 42.000 L 502.000 40.000 L 501.000 39.000 L 501.000 37.000 L 500.000 36.000 L 500.000 34.000 L 499.000 33.000 L 499.000 31.000 L 498.000 30.000 L 498.000 28.000 L 496.000 25.000 L 496.000 23.000 L 495.000 22.000 L 495.000 20.000 L 494.000 19.000 L 493.000 14.000 L 491.000 11.000 L 491.000 9.000 L 490.000 8.000 L 490.000 6.000 L 489.000 5.000 L 488.000 0.000 Z M 484.000 8.000 L 486.000 10.000 L 486.000 12.000 L 487.000 13.000 L 487.000 15.000 L 488.000 16.000 L 489.000 21.000 L 491.000 24.000 L 491.000 26.000 L 492.000 27.000 L 491.000 28.000 L 478.000 28.000 L 477.000 27.000 L 478.000 25.000 L 478.000 23.000 L 479.000 22.000 L 479.000 20.000 L 480.000 19.000 L 480.000 17.000 L 481.000 16.000 L 481.000 14.000 Z" fill="#1A1A1A" fill-rule="evenodd"/>
</g>
<g transform="translate(210.000,150.000) scale(0.988593)">
  <path d="M 317.000 73.000 L 309.000 71.000 L 300.000 71.000 L 287.000 74.000 L 281.000 77.000 L 269.000 88.000 L 264.000 100.000 L 264.000 114.000 L 267.000 120.000 L 280.000 134.000 L 297.000 149.000 L 303.000 159.000 L 304.000 170.000 L 303.000 171.000 L 303.000 176.000 L 300.000 183.000 L 294.000 189.000 L 290.000 191.000 L 276.000 192.000 L 271.000 190.000 L 264.000 183.000 L 260.000 175.000 L 257.000 172.000 L 252.000 172.000 L 247.000 176.000 L 246.000 183.000 L 249.000 189.000 L 254.000 193.000 L 269.000 198.000 L 284.000 197.000 L 301.000 188.000 L 311.000 176.000 L 316.000 163.000 L 315.000 148.000 L 309.000 138.000 L 279.000 108.000 L 276.000 101.000 L 276.000 89.000 L 278.000 84.000 L 281.000 81.000 L 287.000 78.000 L 294.000 77.000 L 295.000 78.000 L 300.000 78.000 L 305.000 81.000 L 315.000 92.000 L 322.000 93.000 L 327.000 89.000 L 328.000 82.000 L 323.000 76.000 Z M 228.000 73.000 L 220.000 71.000 L 211.000 71.000 L 201.000 73.000 L 190.000 78.000 L 180.000 88.000 L 176.000 96.000 L 174.000 106.000 L 175.000 114.000 L 180.000 123.000 L 208.000 149.000 L 214.000 159.000 L 215.000 169.000 L 213.000 179.000 L 211.000 183.000 L 201.000 191.000 L 187.000 192.000 L 182.000 190.000 L 177.000 186.000 L 169.000 173.000 L 163.000 172.000 L 158.000 176.000 L 157.000 183.000 L 160.000 189.000 L 165.000 193.000 L 180.000 198.000 L 189.000 198.000 L 198.000 196.000 L 212.000 188.000 L 222.000 176.000 L 227.000 162.000 L 227.000 153.000 L 225.000 146.000 L 220.000 138.000 L 190.000 108.000 L 187.000 102.000 L 187.000 88.000 L 192.000 81.000 L 198.000 78.000 L 205.000 77.000 L 206.000 78.000 L 211.000 78.000 L 216.000 81.000 L 226.000 92.000 L 233.000 93.000 L 238.000 89.000 L 239.000 83.000 L 238.000 80.000 L 234.000 76.000 Z M 780.000 72.000 L 773.000 70.000 L 762.000 70.000 L 752.000 72.000 L 742.000 76.000 L 724.000 89.000 L 712.000 103.000 L 702.000 121.000 L 698.000 133.000 L 697.000 144.000 L 696.000 145.000 L 696.000 161.000 L 699.000 174.000 L 703.000 182.000 L 714.000 193.000 L 720.000 196.000 L 728.000 198.000 L 743.000 198.000 L 763.000 192.000 L 780.000 181.000 L 780.000 179.000 L 777.000 178.000 L 768.000 184.000 L 755.000 188.000 L 738.000 188.000 L 728.000 184.000 L 720.000 176.000 L 715.000 167.000 L 712.000 155.000 L 712.000 134.000 L 714.000 127.000 L 735.000 123.000 L 750.000 118.000 L 767.000 110.000 L 782.000 98.000 L 786.000 92.000 L 788.000 86.000 L 788.000 81.000 L 787.000 78.000 Z M 770.000 85.000 L 770.000 93.000 L 768.000 98.000 L 756.000 110.000 L 741.000 117.000 L 738.000 117.000 L 731.000 120.000 L 723.000 121.000 L 718.000 123.000 L 715.000 122.000 L 716.000 114.000 L 723.000 98.000 L 728.000 91.000 L 737.000 83.000 L 746.000 79.000 L 755.000 78.000 L 764.000 80.000 Z M 672.000 72.000 L 663.000 70.000 L 654.000 70.000 L 644.000 72.000 L 630.000 78.000 L 620.000 85.000 L 609.000 96.000 L 599.000 112.000 L 595.000 122.000 L 591.000 141.000 L 592.000 165.000 L 595.000 175.000 L 599.000 183.000 L 605.000 190.000 L 615.000 196.000 L 622.000 198.000 L 644.000 197.000 L 659.000 191.000 L 679.000 176.000 L 678.000 174.000 L 676.000 174.000 L 662.000 184.000 L 653.000 188.000 L 636.000 189.000 L 629.000 187.000 L 622.000 183.000 L 615.000 175.000 L 609.000 161.000 L 608.000 148.000 L 607.000 147.000 L 609.000 121.000 L 613.000 107.000 L 621.000 91.000 L 630.000 82.000 L 637.000 78.000 L 644.000 76.000 L 653.000 76.000 L 660.000 79.000 L 663.000 82.000 L 668.000 92.000 L 671.000 95.000 L 676.000 97.000 L 680.000 96.000 L 684.000 92.000 L 685.000 83.000 L 678.000 75.000 Z M 552.000 73.000 L 548.000 71.000 L 537.000 70.000 L 524.000 74.000 L 518.000 78.000 L 508.000 88.000 L 498.000 102.000 L 490.000 117.000 L 483.000 134.000 L 482.000 133.000 L 482.000 128.000 L 489.000 91.000 L 489.000 79.000 L 486.000 73.000 L 479.000 71.000 L 478.000 72.000 L 473.000 72.000 L 466.000 75.000 L 454.000 84.000 L 443.000 96.000 L 446.000 98.000 L 454.000 90.000 L 465.000 83.000 L 471.000 83.000 L 474.000 86.000 L 475.000 89.000 L 474.000 105.000 L 463.000 160.000 L 461.000 176.000 L 457.000 191.000 L 457.000 196.000 L 466.000 197.000 L 471.000 194.000 L 478.000 160.000 L 484.000 141.000 L 493.000 119.000 L 502.000 103.000 L 508.000 95.000 L 516.000 87.000 L 526.000 81.000 L 536.000 81.000 L 543.000 87.000 L 545.000 92.000 L 545.000 110.000 L 544.000 111.000 L 543.000 122.000 L 541.000 128.000 L 541.000 133.000 L 539.000 139.000 L 539.000 144.000 L 533.000 173.000 L 533.000 181.000 L 532.000 182.000 L 532.000 187.000 L 535.000 195.000 L 539.000 197.000 L 547.000 197.000 L 556.000 193.000 L 577.000 173.000 L 577.000 171.000 L 575.000 170.000 L 562.000 182.000 L 555.000 186.000 L 551.000 186.000 L 547.000 181.000 L 547.000 176.000 L 546.000 175.000 L 547.000 174.000 L 547.000 166.000 L 558.000 111.000 L 559.000 96.000 L 560.000 95.000 L 558.000 80.000 Z M 480.000 139.000 L 481.000 138.000 L 482.000 139.000 L 481.000 140.000 Z M 482.000 133.000 L 483.000 134.000 L 482.000 137.000 L 481.000 136.000 Z M 426.000 72.000 L 419.000 70.000 L 408.000 70.000 L 395.000 73.000 L 383.000 79.000 L 376.000 84.000 L 364.000 96.000 L 352.000 113.000 L 344.000 134.000 L 342.000 157.000 L 343.000 158.000 L 343.000 165.000 L 347.000 178.000 L 353.000 187.000 L 360.000 193.000 L 374.000 198.000 L 395.000 197.000 L 413.000 190.000 L 426.000 181.000 L 426.000 179.000 L 424.000 178.000 L 412.000 185.000 L 401.000 188.000 L 384.000 188.000 L 378.000 186.000 L 373.000 183.000 L 363.000 171.000 L 358.000 153.000 L 358.000 136.000 L 359.000 135.000 L 359.000 129.000 L 361.000 127.000 L 381.000 123.000 L 401.000 116.000 L 418.000 107.000 L 429.000 97.000 L 434.000 87.000 L 434.000 80.000 L 431.000 75.000 Z M 416.000 85.000 L 417.000 90.000 L 414.000 99.000 L 405.000 108.000 L 384.000 118.000 L 364.000 123.000 L 361.000 122.000 L 362.000 115.000 L 368.000 100.000 L 376.000 89.000 L 382.000 84.000 L 392.000 79.000 L 402.000 78.000 L 410.000 80.000 Z M 34.000 0.000 L 34.000 3.000 L 47.000 4.000 L 50.000 5.000 L 55.000 11.000 L 54.000 28.000 L 52.000 34.000 L 51.000 45.000 L 49.000 51.000 L 48.000 62.000 L 46.000 68.000 L 45.000 79.000 L 43.000 85.000 L 42.000 96.000 L 38.000 113.000 L 38.000 118.000 L 35.000 130.000 L 28.000 174.000 L 24.000 184.000 L 20.000 188.000 L 9.000 191.000 L 1.000 191.000 L 0.000 193.000 L 1.000 194.000 L 129.000 194.000 L 131.000 192.000 L 133.000 186.000 L 136.000 167.000 L 141.000 151.000 L 140.000 148.000 L 138.000 149.000 L 134.000 161.000 L 125.000 176.000 L 117.000 184.000 L 107.000 189.000 L 55.000 189.000 L 47.000 187.000 L 43.000 183.000 L 42.000 174.000 L 43.000 173.000 L 43.000 167.000 L 46.000 155.000 L 47.000 144.000 L 49.000 138.000 L 50.000 127.000 L 52.000 121.000 L 53.000 110.000 L 55.000 104.000 L 55.000 99.000 L 57.000 96.000 L 108.000 96.000 L 112.000 97.000 L 118.000 102.000 L 120.000 107.000 L 119.000 122.000 L 123.000 121.000 L 124.000 109.000 L 126.000 102.000 L 128.000 84.000 L 131.000 73.000 L 131.000 68.000 L 128.000 68.000 L 127.000 74.000 L 124.000 81.000 L 118.000 87.000 L 110.000 90.000 L 58.000 90.000 L 57.000 89.000 L 69.000 21.000 L 73.000 10.000 L 76.000 7.000 L 85.000 4.000 L 132.000 4.000 L 136.000 6.000 L 144.000 15.000 L 146.000 21.000 L 146.000 41.000 L 149.000 41.000 L 155.000 0.000 Z" fill="#E0C068" fill-rule="evenodd"/>
</g>
</svg>