<svg xmlns="http://www.w3.org/2000/svg" viewBox="0 0 1180 410" role="img" aria-label="ESSENCE Advisory">
<g transform="translate(434.560,73.000) scale(0.536466,0.422414)">
  <path d="M 483.000 50.000 L 481.000 52.000 L 481.000 56.000 L 482.000 57.000 L 486.000 57.000 L 488.000 55.000 L 488.000 52.000 L 486.000 50.000 Z M 538.000 2.000 L 538.000 44.000 L 543.000 44.000 L 543.000 16.000 L 544.000 15.000 L 546.000 17.000 L 556.000 38.000 L 557.000 39.000 L 560.000 39.000 L 573.000 14.000 L 574.000 15.000 L 574.000 44.000 L 579.000 44.000 L 579.000 2.000 L 574.000 2.000 L 572.000 4.000 L 559.000 30.000 L 557.000 29.000 L 544.000 3.000 L 543.000 2.000 Z M 399.000 2.000 L 399.000 44.000 L 404.000 44.000 L 404.000 26.000 L 405.000 25.000 L 425.000 25.000 L 426.000 26.000 L 426.000 44.000 L 431.000 44.000 L 431.000 3.000 L 430.000 2.000 L 426.000 2.000 L 426.000 20.000 L 425.000 21.000 L 405.000 21.000 L 404.000 20.000 L 404.000 2.000 Z M 358.000 3.000 L 356.000 3.000 L 355.000 2.000 L 337.000 2.000 L 336.000 3.000 L 336.000 44.000 L 341.000 44.000 L 341.000 28.000 L 342.000 27.000 L 352.000 27.000 L 353.000 26.000 L 357.000 26.000 L 359.000 25.000 L 363.000 21.000 L 364.000 19.000 L 364.000 10.000 L 362.000 6.000 Z M 341.000 7.000 L 342.000 6.000 L 353.000 6.000 L 357.000 8.000 L 359.000 11.000 L 359.000 18.000 L 355.000 22.000 L 351.000 22.000 L 350.000 23.000 L 342.000 23.000 L 341.000 22.000 Z M 251.000 2.000 L 250.000 3.000 L 250.000 44.000 L 255.000 44.000 L 255.000 2.000 Z M 213.000 2.000 L 209.000 2.000 L 209.000 34.000 L 208.000 35.000 L 208.000 37.000 L 206.000 40.000 L 204.000 41.000 L 200.000 41.000 L 198.000 40.000 L 195.000 37.000 L 195.000 33.000 L 190.000 33.000 L 190.000 38.000 L 191.000 40.000 L 195.000 44.000 L 197.000 44.000 L 198.000 45.000 L 206.000 45.000 L 210.000 43.000 L 213.000 39.000 Z M 124.000 2.000 L 124.000 44.000 L 128.000 44.000 L 128.000 13.000 L 129.000 12.000 L 131.000 14.000 L 131.000 15.000 L 133.000 17.000 L 133.000 18.000 L 135.000 20.000 L 135.000 21.000 L 137.000 23.000 L 137.000 24.000 L 139.000 26.000 L 139.000 27.000 L 141.000 29.000 L 141.000 30.000 L 143.000 32.000 L 143.000 33.000 L 145.000 35.000 L 145.000 36.000 L 147.000 38.000 L 149.000 42.000 L 151.000 44.000 L 156.000 44.000 L 156.000 2.000 L 151.000 2.000 L 151.000 33.000 L 150.000 34.000 L 148.000 32.000 L 148.000 31.000 L 140.000 20.000 L 139.000 17.000 L 137.000 15.000 L 137.000 14.000 L 135.000 12.000 L 135.000 11.000 L 133.000 9.000 L 133.000 8.000 L 131.000 6.000 L 129.000 2.000 Z M 62.000 2.000 L 62.000 44.000 L 88.000 44.000 L 88.000 41.000 L 87.000 40.000 L 68.000 40.000 L 67.000 39.000 L 67.000 26.000 L 68.000 25.000 L 86.000 25.000 L 86.000 21.000 L 68.000 21.000 L 67.000 20.000 L 67.000 7.000 L 68.000 6.000 L 88.000 6.000 L 88.000 2.000 Z M 0.000 2.000 L 0.000 44.000 L 5.000 44.000 L 5.000 27.000 L 9.000 23.000 L 12.000 27.000 L 12.000 28.000 L 14.000 30.000 L 15.000 33.000 L 19.000 38.000 L 22.000 44.000 L 28.000 44.000 L 27.000 41.000 L 25.000 39.000 L 22.000 33.000 L 18.000 28.000 L 17.000 25.000 L 13.000 20.000 L 13.000 19.000 L 28.000 3.000 L 28.000 2.000 L 22.000 2.000 L 6.000 19.000 L 5.000 18.000 L 5.000 2.000 Z M 481.000 0.000 L 479.000 4.000 L 479.000 6.000 L 478.000 7.000 L 478.000 9.000 L 477.000 10.000 L 477.000 12.000 L 476.000 13.000 L 475.000 18.000 L 473.000 21.000 L 473.000 23.000 L 472.000 24.000 L 472.000 26.000 L 471.000 27.000 L 470.000 32.000 L 468.000 35.000 L 468.000 37.000 L 467.000 38.000 L 467.000 40.000 L 465.000 44.000 L 471.000 44.000 L 472.000 42.000 L 472.000 40.000 L 473.000 39.000 L 473.000 37.000 L 476.000 33.000 L 493.000 33.000 L 495.000 36.000 L 495.000 38.000 L 497.000 41.000 L 497.000 43.000 L 498.000 44.000 L 503.000 44.000 L 502.000 42.000 L 502.000 40.000 L 501.000 39.000 L 501.000 37.000 L 500.000 36.000 L 500.000 34.000 L 499.000 33.000 L 499.000 31.000 L 498.000 30.000 L 498.000 28.000 L 496.000 25.000 L 496.000 23.000 L 495.000 22.000 L 495.000 20.000 L 494.000 19.000 L 493.000 14.000 L 491.000 11.000 L 491.000 9.000 L 490.000 8.000 L 490.000 6.000 L 489.000 5.000 L 488.000 0.000 Z M 484.000 8.000 L 486.000 10.000 L 486.000 12.000 L 487.000 13.000 L 487.000 15.000 L 488.000 16.000 L 489.000 21.000 L 491.000 24.000 L 491.000 26.000 L 492.000 27.000 L 491.000 28.000 L 478.000 28.000 L 477.000 27.000 L 478.000 25.000 L 478.000 23.000 L 479.000 22.000 L 479.000 20.000 L 480.000 19.000 L 480.000 17.000 L 481.000 16.000 L 481.000 14.000 Z" fill="#1A1A1A" fill-rule="evenodd"/>
</g>
<g transform="translate(100.061,180.000) scale(0.640051)">
  <path d="M 317.000 73.000 L 309.000 71.000 L 300.000 71.000 L 287.000 74.000 L 281.000 77.000 L 269.000 88.000 L 264.000 100.000 L 264.000 114.000 L 267.000 120.000 L 280.000 134.000 L 297.000 149.000 L 303.000 159.000 L 304.000 170.000 L 303.000 171.000 L 303.000 176.000 L 300.000 183.000 L 294.000 189.000 L 290.000 191.000 L 276.000 192.000 L 271.000 190.000 L 264.000 183.000 L 260.000 175.000 L 257.000 172.000 L 252.000 172.000 L 247.000 176.000 L 246.000 183.000 L 249.000 189.000 L 254.000 193.000 L 269.000 198.000 L 284.000 197.000 L 301.000 188.000 L 311.000 176.000 L 316.000 163.000 L 315.000 148.000 L 309.000 138.000 L 279.000 108.000 L 276.000 101.000 L 276.000 89.000 L 278.000 84.000 L 281.000 81.000 L 287.000 78.000 L 294.000 77.000 L 295.000 78.000 L 300.000 78.000 L 305.000 81.000 L 315.000 92.000 L 322.000 93.000 L 327.000 89.000 L 328.000 82.000 L 323.000 76.000 Z M 228.000 73.000 L 220.000 71.000 L 211.000 71.000 L 201.000 73.000 L 190.000 78.000 L 180.000 88.000 L 176.000 96.000 L 174.000 106.000 L 175.000 114.000 L 180.000 123.000 L 208.000 149.000 L 214.000 159.000 L 215.000 169.000 L 213.000 179.000 L 211.000 183.000 L 201.000 191.000 L 187.000 192.000 L 182.000 190.000 L 177.000 186.000 L 169.000 173.000 L 163.000 172.000 L 158.000 176.000 L 157.000 183.000 L 160.000 189.000 L 165.000 193.000 L 180.000 198.000 L 189.000 198.000 L 198.000 196.000 L 212.000 188.000 L 222.000 176.000 L 227.000 162.000 L 227.000 153.000 L 225.000 146.000 L 220.000 138.000 L 190.000 108.000 L 187.000 102.000 L 187.000 88.000 L 192.000 81.000 L 198.000 78.000 L 205.000 77.000 L 206.000 78.000 L 211.000 78.000 L 216.000 81.000 L 226.000 92.000 L 233.000 93.000 L 238.000 89.000 L 239.000 83.000 L 238.000 80.000 L 234.000 76.000 Z M 780.000 72.000 L 773.000 70.000 L 762.000 70.000 L 752.000 72.000 L 742.000 76.000 L 724.000 89.000 L 712.000 103.000 L 702.000 121.000 L 698.000 133.000 L 697.000 144.000 L 696.000 145.000 L 696.000 161.000 L 699.000 174.000 L 703.000 182.000 L 714.000 193.000 L 720.000 196.000 L 728.000 198.000 L 743.000 198.000 L 763.000 192.000 L 780.000 181.000 L 780.000 179.000 L 777.000 178.000 L 768.000 184.000 L 755.000 188.000 L 738.000 188.000 L 728.000 184.000 L 720.000 176.000 L 715.000 167.000 L 712.000 155.000 L 712.000 134.000 L 714.000 127.000 L 735.000 123.000 L 750.000 118.000 L 767.000 110.000 L 782.000 98.000 L 786.000 92.000 L 788.000 86.000 L 788.000 81.000 L 787.000 78.000 Z M 770.000 85.000 L 770.000 93.000 L 768.000 98.000 L 756.000 110.000 L 741.000 117.000 L 738.000 117.000 L 731.000 120.000 L 723.000 121.000 L 718.000 123.000 L 715.000 122.000 L 716.000 114.000 L 723.000 98.000 L 728.000 91.000 L 737.000 83.000 L 746.000 79.000 L 755.000 78.000 L 764.000 80.000 Z M 672.000 72.000 L 663.000 70.000 L 654.000 70.000 L 644.000 72.000 L 630.000 78.000 L 620.000 85.000 L 609.000 96.000 L 599.000 112.000 L 595.000 122.000 L 591.000 141.000 L 592.000 165.000 L 595.000 175.000 L 599.000 183.000 L 605.000 190.000 L 615.000 196.000 L 622.000 198.000 L 644.000 197.000 L 659.000 191.000 L 679.000 176.000 L 678.000 174.000 L 676.000 174.000 L 662.000 184.000 L 653.000 188.000 L 636.000 189.000 L 629.000 187.000 L 622.000 183.000 L 615.000 175.000 L 609.000 161.000 L 608.000 148.000 L 607.000 147.000 L 609.000 121.000 L 613.000 107.000 L 621.000 91.000 L 630.000 82.000 L 637.000 78.000 L 644.000 76.000 L 653.000 76.000 L 660.000 79.000 L 663.000 82.000 L 668.000 92.000 L 671.000 95.000 L 676.000 97.000 L 680.000 96.000 L 684.000 92.000 L 685.000 83.000 L 678.000 75.000 Z M 552.000 73.000 L 548.000 71.000 L 537.000 70.000 L 524.000 74.000 L 518.000 78.000 L 508.000 88.000 L 498.000 102.000 L 490.000 117.000 L 483.000 134.000 L 482.000 133.000 L 482.000 128.000 L 489.000 91.000 L 489.000 79.000 L 486.000 73.000 L 479.000 71.000 L 478.000 72.000 L 473.000 72.000 L 466.000 75.000 L 454.000 84.000 L 443.000 96.000 L 446.000 98.000 L 454.000 90.000 L 465.000 83.000 L 471.000 83.000 L 474.000 86.000 L 475.000 89.000 L 474.000 105.000 L 463.000 160.000 L 461.000 176.000 L 457.000 191.000 L 457.000 196.000 L 466.000 197.000 L 471.000 194.000 L 478.000 160.000 L 484.000 141.000 L 493.000 119.000 L 502.000 103.000 L 508.000 95.000 L 516.000 87.000 L 526.000 81.000 L 536.000 81.000 L 543.000 87.000 L 545.000 92.000 L 545.000 110.000 L 544.000 111.000 L 543.000 122.000 L 541.000 128.000 L 541.000 133.000 L 539.000 139.000 L 539.000 144.000 L 533.000 173.000 L 533.000 181.000 L 532.000 182.000 L 532.000 187.000 L 535.000 195.000 L 539.000 197.000 L 547.000 197.000 L 556.000 193.000 L 577.000 173.000 L 577.000 171.000 L 575.000 170.000 L 562.000 182.000 L 555.000 186.000 L 551.000 186.000 L 547.000 181.000 L 547.000 176.000 L 546.000 175.000 L 547.000 174.000 L 547.000 166.000 L 558.000 111.000 L 559.000 96.000 L 560.000 95.000 L 558.000 80.000 Z M 480.000 139.000 L 481.000 138.000 L 482.000 139.000 L 481.000 140.000 Z M 482.000 133.000 L 483.000 134.000 L 482.000 137.000 L 481.000 136.000 Z M 426.000 72.000 L 419.000 70.000 L 408.000 70.000 L 395.000 73.000 L 383.000 79.000 L 376.000 84.000 L 364.000 96.000 L 352.000 113.000 L 344.000 134.000 L 342.000 157.000 L 343.000 158.000 L 343.000 165.000 L 347.000 178.000 L 353.000 187.000 L 360.000 193.000 L 374.000 198.000 L 395.000 197.000 L 413.000 190.000 L 426.000 181.000 L 426.000 179.000 L 424.000 178.000 L 412.000 185.000 L 401.000 188.000 L 384.000 188.000 L 378.000 186.000 L 373.000 183.000 L 363.000 171.000 L 358.000 153.000 L 358.000 136.000 L 359.000 135.000 L 359.000 129.000 L 361.000 127.000 L 381.000 123.000 L 401.000 116.000 L 418.000 107.000 L 429.000 97.000 L 434.000 87.000 L 434.000 80.000 L 431.000 75.000 Z M 416.000 85.000 L 417.000 90.000 L 414.000 99.000 L 405.000 108.000 L 384.000 118.000 L 364.000 123.000 L 361.000 122.000 L 362.000 115.000 L 368.000 100.000 L 376.000 89.000 L 382.000 84.000 L 392.000 79.000 L 402.000 78.000 L 410.000 80.000 Z M 34.000 0.000 L 34.000 3.000 L 47.000 4.000 L 50.000 5.000 L 55.000 11.000 L 54.000 28.000 L 52.000 34.000 L 51.000 45.000 L 49.000 51.000 L 48.000 62.000 L 46.000 68.000 L 45.000 79.000 L 43.000 85.000 L 42.000 96.000 L 38.000 113.000 L 38.000 118.000 L 35.000 130.000 L 28.000 174.000 L 24.000 184.000 L 20.000 188.000 L 9.000 191.000 L 1.000 191.000 L 0.000 193.000 L 1.000 194.000 L 129.000 194.000 L 131.000 192.000 L 133.000 186.000 L 136.000 167.000 L 141.000 151.000 L 140.000 148.000 L 138.000 149.000 L 134.000 161.000 L 125.000 176.000 L 117.000 184.000 L 107.000 189.000 L 55.000 189.000 L 47.000 187.000 L 43.000 183.000 L 42.000 174.000 L 43.000 173.000 L 43.000 167.000 L 46.000 155.000 L 47.000 144.000 L 49.000 138.000 L 50.000 127.000 L 52.000 121.000 L 53.000 110.000 L 55.000 104.000 L 55.000 99.000 L 57.000 96.000 L 108.000 96.000 L 112.000 97.000 L 118.000 102.000 L 120.000 107.000 L 119.000 122.000 L 123.000 121.000 L 124.000 109.000 L 126.000 102.000 L 128.000 84.000 L 131.000 73.000 L 131.000 68.000 L 128.000 68.000 L 127.000 74.000 L 124.000 81.000 L 118.000 87.000 L 110.000 90.000 L 58.000 90.000 L 57.000 89.000 L 69.000 21.000 L 73.000 10.000 L 76.000 7.000 L 85.000 4.000 L 132.000 4.000 L 136.000 6.000 L 144.000 15.000 L 146.000 21.000 L 146.000 41.000 L 149.000 41.000 L 155.000 0.000 Z" fill="#E0C068" fill-rule="evenodd"/>
</g>
<g transform="translate(678.782,214.639) scale(0.442670,0.463429)">
  <path d="M 904.000 60.000 L 898.000 59.000 L 897.000 60.000 L 889.000 60.000 L 888.000 61.000 L 879.000 61.000 L 878.000 60.000 L 869.000 60.000 L 868.000 59.000 L 864.000 59.000 L 861.000 61.000 L 861.000 64.000 L 870.000 69.000 L 872.000 71.000 L 873.000 73.000 L 873.000 84.000 L 870.000 90.000 L 869.000 95.000 L 867.000 98.000 L 866.000 103.000 L 864.000 106.000 L 863.000 111.000 L 861.000 114.000 L 860.000 119.000 L 858.000 122.000 L 857.000 127.000 L 852.000 137.000 L 850.000 135.000 L 848.000 131.000 L 848.000 129.000 L 845.000 124.000 L 845.000 122.000 L 843.000 119.000 L 843.000 117.000 L 841.000 114.000 L 841.000 112.000 L 839.000 109.000 L 839.000 107.000 L 837.000 104.000 L 837.000 102.000 L 835.000 99.000 L 835.000 97.000 L 833.000 94.000 L 833.000 92.000 L 831.000 89.000 L 831.000 87.000 L 829.000 84.000 L 829.000 82.000 L 827.000 78.000 L 827.000 73.000 L 828.000 71.000 L 831.000 68.000 L 837.000 66.000 L 840.000 63.000 L 840.000 61.000 L 836.000 59.000 L 831.000 59.000 L 830.000 60.000 L 820.000 60.000 L 819.000 61.000 L 811.000 61.000 L 810.000 60.000 L 801.000 60.000 L 800.000 59.000 L 794.000 59.000 L 791.000 61.000 L 791.000 63.000 L 792.000 64.000 L 801.000 68.000 L 807.000 75.000 L 809.000 79.000 L 809.000 81.000 L 811.000 84.000 L 811.000 86.000 L 813.000 89.000 L 813.000 91.000 L 815.000 94.000 L 815.000 96.000 L 817.000 99.000 L 817.000 101.000 L 819.000 104.000 L 819.000 106.000 L 821.000 109.000 L 821.000 111.000 L 823.000 114.000 L 824.000 119.000 L 826.000 122.000 L 826.000 124.000 L 828.000 127.000 L 830.000 134.000 L 832.000 137.000 L 832.000 139.000 L 834.000 142.000 L 834.000 144.000 L 836.000 147.000 L 836.000 149.000 L 838.000 152.000 L 839.000 157.000 L 840.000 158.000 L 840.000 166.000 L 839.000 167.000 L 839.000 170.000 L 837.000 173.000 L 837.000 175.000 L 835.000 178.000 L 833.000 185.000 L 830.000 190.000 L 830.000 192.000 L 817.000 218.000 L 815.000 220.000 L 815.000 221.000 L 812.000 223.000 L 807.000 223.000 L 806.000 222.000 L 796.000 222.000 L 793.000 226.000 L 793.000 231.000 L 797.000 236.000 L 801.000 238.000 L 812.000 238.000 L 813.000 237.000 L 815.000 237.000 L 821.000 232.000 L 825.000 224.000 L 825.000 222.000 L 828.000 217.000 L 830.000 210.000 L 833.000 205.000 L 833.000 203.000 L 835.000 200.000 L 837.000 193.000 L 840.000 188.000 L 840.000 186.000 L 842.000 183.000 L 844.000 176.000 L 847.000 171.000 L 849.000 164.000 L 855.000 152.000 L 857.000 145.000 L 860.000 140.000 L 862.000 133.000 L 868.000 121.000 L 870.000 114.000 L 873.000 109.000 L 875.000 102.000 L 878.000 97.000 L 878.000 95.000 L 884.000 83.000 L 884.000 81.000 L 886.000 79.000 L 887.000 76.000 L 896.000 67.000 L 900.000 66.000 L 904.000 63.000 Z M 426.000 60.000 L 420.000 59.000 L 419.000 60.000 L 412.000 60.000 L 411.000 61.000 L 401.000 61.000 L 400.000 60.000 L 390.000 60.000 L 389.000 59.000 L 386.000 59.000 L 382.000 61.000 L 383.000 64.000 L 387.000 66.000 L 389.000 66.000 L 393.000 70.000 L 394.000 72.000 L 395.000 80.000 L 394.000 81.000 L 394.000 85.000 L 393.000 86.000 L 392.000 91.000 L 390.000 94.000 L 390.000 96.000 L 386.000 104.000 L 385.000 109.000 L 383.000 112.000 L 383.000 114.000 L 381.000 117.000 L 381.000 119.000 L 379.000 122.000 L 378.000 127.000 L 376.000 130.000 L 376.000 132.000 L 373.000 138.000 L 372.000 138.000 L 370.000 135.000 L 369.000 130.000 L 367.000 127.000 L 366.000 122.000 L 364.000 119.000 L 363.000 114.000 L 361.000 111.000 L 360.000 106.000 L 358.000 103.000 L 358.000 101.000 L 357.000 100.000 L 356.000 95.000 L 354.000 92.000 L 353.000 87.000 L 351.000 84.000 L 351.000 80.000 L 350.000 79.000 L 350.000 75.000 L 351.000 74.000 L 351.000 71.000 L 352.000 69.000 L 355.000 66.000 L 359.000 65.000 L 361.000 63.000 L 361.000 60.000 L 359.000 60.000 L 358.000 59.000 L 353.000 59.000 L 352.000 60.000 L 333.000 61.000 L 332.000 60.000 L 323.000 60.000 L 322.000 59.000 L 316.000 59.000 L 313.000 61.000 L 313.000 63.000 L 314.000 64.000 L 323.000 68.000 L 328.000 73.000 L 332.000 81.000 L 332.000 83.000 L 334.000 86.000 L 334.000 88.000 L 336.000 91.000 L 336.000 93.000 L 340.000 101.000 L 341.000 106.000 L 343.000 109.000 L 343.000 111.000 L 345.000 114.000 L 345.000 116.000 L 349.000 124.000 L 350.000 129.000 L 352.000 132.000 L 352.000 134.000 L 356.000 142.000 L 357.000 147.000 L 359.000 150.000 L 359.000 152.000 L 363.000 160.000 L 364.000 165.000 L 367.000 170.000 L 369.000 169.000 L 375.000 158.000 L 375.000 156.000 L 377.000 153.000 L 378.000 148.000 L 380.000 145.000 L 382.000 137.000 L 384.000 134.000 L 386.000 127.000 L 389.000 122.000 L 389.000 120.000 L 391.000 117.000 L 393.000 110.000 L 396.000 105.000 L 398.000 98.000 L 401.000 93.000 L 401.000 91.000 L 403.000 88.000 L 403.000 86.000 L 407.000 78.000 L 415.000 69.000 L 420.000 66.000 L 424.000 65.000 L 426.000 63.000 Z M 633.000 57.000 L 632.000 58.000 L 627.000 58.000 L 626.000 59.000 L 621.000 60.000 L 611.000 65.000 L 609.000 67.000 L 608.000 67.000 L 595.000 80.000 L 595.000 81.000 L 591.000 86.000 L 586.000 96.000 L 586.000 98.000 L 584.000 102.000 L 584.000 106.000 L 583.000 107.000 L 583.000 125.000 L 584.000 126.000 L 584.000 130.000 L 585.000 131.000 L 586.000 136.000 L 588.000 139.000 L 588.000 141.000 L 590.000 143.000 L 591.000 146.000 L 594.000 149.000 L 594.000 150.000 L 601.000 157.000 L 602.000 157.000 L 607.000 161.000 L 618.000 166.000 L 621.000 166.000 L 622.000 167.000 L 627.000 167.000 L 628.000 168.000 L 643.000 168.000 L 644.000 167.000 L 649.000 167.000 L 650.000 166.000 L 653.000 166.000 L 667.000 160.000 L 675.000 153.000 L 676.000 153.000 L 676.000 152.000 L 681.000 147.000 L 681.000 146.000 L 685.000 141.000 L 691.000 127.000 L 691.000 124.000 L 692.000 123.000 L 692.000 117.000 L 693.000 116.000 L 693.000 103.000 L 692.000 102.000 L 692.000 98.000 L 691.000 97.000 L 690.000 91.000 L 685.000 81.000 L 673.000 68.000 L 672.000 68.000 L 667.000 64.000 L 656.000 59.000 L 653.000 59.000 L 652.000 58.000 L 647.000 58.000 L 646.000 57.000 Z M 628.000 65.000 L 641.000 65.000 L 642.000 66.000 L 647.000 67.000 L 652.000 70.000 L 663.000 82.000 L 668.000 92.000 L 668.000 94.000 L 670.000 98.000 L 670.000 101.000 L 671.000 102.000 L 671.000 107.000 L 672.000 108.000 L 672.000 126.000 L 671.000 127.000 L 671.000 133.000 L 670.000 134.000 L 670.000 138.000 L 669.000 139.000 L 668.000 144.000 L 666.000 148.000 L 662.000 153.000 L 661.000 153.000 L 658.000 156.000 L 649.000 160.000 L 633.000 160.000 L 623.000 155.000 L 613.000 144.000 L 607.000 132.000 L 606.000 126.000 L 605.000 125.000 L 605.000 121.000 L 604.000 120.000 L 604.000 97.000 L 605.000 96.000 L 605.000 91.000 L 606.000 90.000 L 607.000 84.000 L 612.000 75.000 L 617.000 70.000 L 622.000 67.000 L 624.000 67.000 Z M 545.000 57.000 L 531.000 57.000 L 530.000 58.000 L 526.000 58.000 L 525.000 59.000 L 518.000 61.000 L 509.000 69.000 L 506.000 74.000 L 506.000 76.000 L 504.000 80.000 L 504.000 86.000 L 503.000 88.000 L 504.000 89.000 L 504.000 94.000 L 507.000 100.000 L 515.000 109.000 L 516.000 109.000 L 526.000 118.000 L 530.000 120.000 L 538.000 127.000 L 539.000 127.000 L 545.000 133.000 L 548.000 139.000 L 548.000 148.000 L 545.000 155.000 L 542.000 158.000 L 536.000 161.000 L 525.000 161.000 L 518.000 158.000 L 508.000 149.000 L 506.000 145.000 L 506.000 143.000 L 504.000 141.000 L 499.000 141.000 L 497.000 143.000 L 498.000 144.000 L 498.000 151.000 L 499.000 152.000 L 499.000 155.000 L 501.000 159.000 L 504.000 162.000 L 513.000 166.000 L 521.000 167.000 L 522.000 168.000 L 536.000 168.000 L 537.000 167.000 L 542.000 167.000 L 543.000 166.000 L 546.000 166.000 L 549.000 164.000 L 553.000 163.000 L 559.000 158.000 L 559.000 157.000 L 562.000 154.000 L 564.000 147.000 L 565.000 146.000 L 565.000 138.000 L 566.000 137.000 L 565.000 136.000 L 565.000 131.000 L 561.000 122.000 L 551.000 111.000 L 529.000 97.000 L 524.000 92.000 L 519.000 84.000 L 519.000 75.000 L 521.000 71.000 L 527.000 65.000 L 529.000 64.000 L 534.000 64.000 L 535.000 63.000 L 536.000 64.000 L 540.000 64.000 L 544.000 66.000 L 550.000 72.000 L 551.000 76.000 L 552.000 77.000 L 552.000 80.000 L 559.000 84.000 L 561.000 84.000 L 562.000 83.000 L 561.000 70.000 L 558.000 63.000 L 552.000 59.000 L 546.000 58.000 Z M 784.000 59.000 L 780.000 58.000 L 779.000 57.000 L 771.000 57.000 L 770.000 58.000 L 765.000 59.000 L 755.000 65.000 L 746.000 74.000 L 745.000 73.000 L 746.000 54.000 L 744.000 53.000 L 740.000 55.000 L 732.000 61.000 L 724.000 65.000 L 722.000 65.000 L 718.000 67.000 L 715.000 67.000 L 713.000 69.000 L 713.000 72.000 L 715.000 74.000 L 719.000 75.000 L 724.000 80.000 L 724.000 82.000 L 726.000 86.000 L 726.000 151.000 L 721.000 157.000 L 719.000 157.000 L 712.000 160.000 L 710.000 162.000 L 710.000 163.000 L 712.000 165.000 L 726.000 165.000 L 727.000 164.000 L 747.000 164.000 L 748.000 165.000 L 762.000 165.000 L 764.000 164.000 L 764.000 162.000 L 762.000 160.000 L 751.000 156.000 L 749.000 154.000 L 748.000 154.000 L 744.000 149.000 L 744.000 89.000 L 745.000 88.000 L 746.000 83.000 L 748.000 81.000 L 748.000 80.000 L 753.000 76.000 L 757.000 75.000 L 758.000 74.000 L 765.000 74.000 L 766.000 75.000 L 768.000 75.000 L 769.000 76.000 L 771.000 76.000 L 774.000 78.000 L 777.000 78.000 L 778.000 79.000 L 779.000 78.000 L 781.000 78.000 L 785.000 74.000 L 788.000 67.000 L 788.000 64.000 Z M 469.000 52.000 L 467.000 52.000 L 463.000 54.000 L 458.000 58.000 L 448.000 63.000 L 446.000 63.000 L 440.000 66.000 L 437.000 66.000 L 435.000 68.000 L 435.000 72.000 L 436.000 73.000 L 441.000 74.000 L 447.000 80.000 L 447.000 82.000 L 449.000 86.000 L 449.000 151.000 L 446.000 155.000 L 434.000 160.000 L 432.000 162.000 L 432.000 164.000 L 433.000 165.000 L 447.000 165.000 L 448.000 164.000 L 468.000 164.000 L 469.000 165.000 L 483.000 165.000 L 484.000 164.000 L 484.000 162.000 L 482.000 160.000 L 471.000 156.000 L 467.000 151.000 L 467.000 75.000 L 468.000 74.000 Z M 451.000 5.000 L 444.000 11.000 L 444.000 13.000 L 443.000 14.000 L 443.000 21.000 L 444.000 22.000 L 444.000 24.000 L 451.000 30.000 L 460.000 30.000 L 464.000 28.000 L 468.000 23.000 L 468.000 21.000 L 469.000 20.000 L 469.000 15.000 L 468.000 14.000 L 468.000 12.000 L 464.000 7.000 L 460.000 5.000 Z M 291.000 0.000 L 264.000 0.000 L 265.000 0.000 L 270.000 5.000 L 271.000 9.000 L 272.000 10.000 L 272.000 64.000 L 271.000 65.000 L 267.000 61.000 L 265.000 61.000 L 258.000 58.000 L 254.000 58.000 L 253.000 57.000 L 240.000 57.000 L 239.000 58.000 L 234.000 58.000 L 233.000 59.000 L 227.000 60.000 L 224.000 62.000 L 222.000 62.000 L 218.000 64.000 L 216.000 66.000 L 212.000 68.000 L 200.000 81.000 L 193.000 94.000 L 192.000 100.000 L 191.000 101.000 L 191.000 105.000 L 190.000 106.000 L 190.000 124.000 L 191.000 125.000 L 191.000 129.000 L 192.000 130.000 L 194.000 138.000 L 197.000 144.000 L 202.000 150.000 L 202.000 151.000 L 211.000 160.000 L 220.000 165.000 L 222.000 165.000 L 226.000 167.000 L 230.000 167.000 L 231.000 168.000 L 244.000 168.000 L 245.000 167.000 L 248.000 167.000 L 249.000 166.000 L 254.000 165.000 L 261.000 161.000 L 266.000 156.000 L 267.000 156.000 L 267.000 155.000 L 271.000 151.000 L 272.000 152.000 L 272.000 157.000 L 271.000 158.000 L 271.000 169.000 L 275.000 169.000 L 292.000 162.000 L 295.000 162.000 L 296.000 161.000 L 299.000 161.000 L 300.000 160.000 L 304.000 160.000 L 305.000 159.000 L 309.000 159.000 L 311.000 158.000 L 311.000 153.000 L 310.000 152.000 L 306.000 152.000 L 305.000 153.000 L 295.000 153.000 L 292.000 150.000 L 291.000 148.000 L 291.000 145.000 L 290.000 144.000 L 290.000 2.000 Z M 235.000 66.000 L 247.000 66.000 L 248.000 67.000 L 253.000 68.000 L 258.000 71.000 L 266.000 79.000 L 270.000 86.000 L 270.000 88.000 L 272.000 92.000 L 272.000 138.000 L 271.000 139.000 L 270.000 144.000 L 267.000 147.000 L 267.000 148.000 L 263.000 152.000 L 255.000 156.000 L 250.000 156.000 L 249.000 157.000 L 246.000 157.000 L 245.000 156.000 L 240.000 156.000 L 239.000 155.000 L 234.000 154.000 L 224.000 148.000 L 217.000 141.000 L 216.000 138.000 L 213.000 134.000 L 213.000 132.000 L 210.000 125.000 L 210.000 121.000 L 209.000 120.000 L 209.000 98.000 L 210.000 97.000 L 210.000 93.000 L 211.000 92.000 L 212.000 87.000 L 217.000 78.000 L 223.000 72.000 Z M 83.000 0.000 L 83.000 4.000 L 82.000 5.000 L 81.000 12.000 L 79.000 15.000 L 78.000 20.000 L 76.000 23.000 L 76.000 25.000 L 75.000 26.000 L 74.000 31.000 L 72.000 34.000 L 71.000 39.000 L 67.000 47.000 L 66.000 52.000 L 62.000 60.000 L 61.000 65.000 L 59.000 68.000 L 59.000 70.000 L 57.000 73.000 L 57.000 75.000 L 55.000 78.000 L 55.000 80.000 L 53.000 83.000 L 53.000 85.000 L 51.000 88.000 L 49.000 95.000 L 46.000 100.000 L 46.000 102.000 L 44.000 105.000 L 42.000 112.000 L 39.000 117.000 L 39.000 119.000 L 36.000 124.000 L 36.000 126.000 L 33.000 131.000 L 33.000 133.000 L 29.000 141.000 L 19.000 152.000 L 11.000 156.000 L 4.000 158.000 L 2.000 160.000 L 1.000 160.000 L 0.000 163.000 L 2.000 165.000 L 4.000 165.000 L 5.000 166.000 L 11.000 166.000 L 12.000 165.000 L 27.000 165.000 L 28.000 164.000 L 57.000 164.000 L 58.000 165.000 L 64.000 165.000 L 65.000 164.000 L 68.000 164.000 L 70.000 162.000 L 70.000 161.000 L 68.000 159.000 L 61.000 157.000 L 60.000 156.000 L 58.000 156.000 L 52.000 153.000 L 48.000 149.000 L 47.000 145.000 L 46.000 144.000 L 46.000 139.000 L 47.000 138.000 L 48.000 131.000 L 49.000 130.000 L 50.000 124.000 L 51.000 123.000 L 51.000 121.000 L 52.000 120.000 L 52.000 118.000 L 53.000 117.000 L 53.000 115.000 L 54.000 114.000 L 54.000 112.000 L 55.000 111.000 L 57.000 104.000 L 60.000 101.000 L 115.000 101.000 L 119.000 106.000 L 119.000 109.000 L 121.000 113.000 L 121.000 116.000 L 123.000 120.000 L 123.000 123.000 L 124.000 124.000 L 124.000 127.000 L 125.000 128.000 L 125.000 131.000 L 126.000 132.000 L 126.000 135.000 L 127.000 136.000 L 128.000 146.000 L 127.000 147.000 L 127.000 149.000 L 123.000 153.000 L 116.000 156.000 L 108.000 157.000 L 104.000 159.000 L 103.000 162.000 L 105.000 164.000 L 151.000 164.000 L 152.000 165.000 L 169.000 165.000 L 170.000 166.000 L 177.000 166.000 L 178.000 165.000 L 180.000 165.000 L 182.000 163.000 L 179.000 159.000 L 164.000 155.000 L 159.000 152.000 L 154.000 147.000 L 149.000 138.000 L 149.000 136.000 L 147.000 133.000 L 143.000 119.000 L 141.000 116.000 L 141.000 114.000 L 140.000 113.000 L 140.000 111.000 L 139.000 110.000 L 139.000 108.000 L 138.000 107.000 L 138.000 105.000 L 137.000 104.000 L 137.000 102.000 L 136.000 101.000 L 136.000 99.000 L 135.000 98.000 L 135.000 96.000 L 134.000 95.000 L 134.000 93.000 L 133.000 92.000 L 133.000 90.000 L 132.000 89.000 L 132.000 87.000 L 131.000 86.000 L 131.000 84.000 L 130.000 83.000 L 130.000 81.000 L 129.000 80.000 L 129.000 78.000 L 128.000 77.000 L 128.000 75.000 L 127.000 74.000 L 127.000 72.000 L 126.000 71.000 L 126.000 69.000 L 125.000 68.000 L 125.000 66.000 L 124.000 65.000 L 124.000 63.000 L 123.000 62.000 L 123.000 60.000 L 122.000 59.000 L 122.000 57.000 L 121.000 56.000 L 121.000 54.000 L 120.000 53.000 L 120.000 51.000 L 119.000 50.000 L 119.000 48.000 L 118.000 47.000 L 118.000 45.000 L 117.000 44.000 L 117.000 42.000 L 116.000 41.000 L 116.000 39.000 L 115.000 38.000 L 115.000 36.000 L 114.000 35.000 L 114.000 33.000 L 113.000 32.000 L 113.000 30.000 L 112.000 29.000 L 112.000 27.000 L 111.000 26.000 L 111.000 24.000 L 110.000 23.000 L 110.000 21.000 L 109.000 20.000 L 109.000 18.000 L 108.000 17.000 L 108.000 15.000 L 107.000 14.000 L 103.000 0.000 Z M 89.000 19.000 L 91.000 21.000 L 91.000 23.000 L 92.000 24.000 L 92.000 26.000 L 93.000 27.000 L 93.000 29.000 L 94.000 30.000 L 94.000 32.000 L 95.000 33.000 L 95.000 35.000 L 96.000 36.000 L 96.000 38.000 L 97.000 39.000 L 97.000 41.000 L 98.000 42.000 L 98.000 44.000 L 99.000 45.000 L 99.000 47.000 L 100.000 48.000 L 100.000 50.000 L 101.000 51.000 L 101.000 53.000 L 102.000 54.000 L 102.000 56.000 L 103.000 57.000 L 103.000 59.000 L 104.000 60.000 L 104.000 62.000 L 105.000 63.000 L 105.000 65.000 L 106.000 66.000 L 106.000 68.000 L 107.000 69.000 L 107.000 71.000 L 108.000 72.000 L 108.000 74.000 L 109.000 75.000 L 109.000 77.000 L 112.000 84.000 L 112.000 87.000 L 113.000 88.000 L 111.000 90.000 L 65.000 90.000 L 63.000 88.000 L 65.000 81.000 L 67.000 78.000 L 68.000 73.000 L 70.000 70.000 L 71.000 65.000 L 73.000 62.000 L 74.000 57.000 L 76.000 54.000 L 77.000 49.000 L 79.000 46.000 L 80.000 41.000 L 82.000 38.000 L 83.000 33.000 L 85.000 30.000 L 87.000 22.000 Z" fill="#1A1A1A" fill-rule="evenodd"/>
</g>
</svg>